%TF.GenerationSoftware,KiCad,Pcbnew,10.0.3*%
%TF.CreationDate,2026-06-12T08:35:37+05:30*%
%TF.ProjectId,5v dc power supply,35762064-6320-4706-9f77-657220737570,rev?*%
%TF.SameCoordinates,Original*%
%TF.FileFunction,Legend,Top*%
%TF.FilePolarity,Positive*%
%FSLAX46Y46*%
G04 Gerber Fmt 4.6, Leading zero omitted, Abs format (unit mm)*
G04 Created by KiCad (PCBNEW 10.0.3) date 2026-06-12 08:35:37*
%MOMM*%
%LPD*%
G01*
G04 APERTURE LIST*
G04 Aperture macros list*
%AMRoundRect*
0 Rectangle with rounded corners*
0 $1 Rounding radius*
0 $2 $3 $4 $5 $6 $7 $8 $9 X,Y pos of 4 corners*
0 Add a 4 corners polygon primitive as box body*
4,1,4,$2,$3,$4,$5,$6,$7,$8,$9,$2,$3,0*
0 Add four circle primitives for the rounded corners*
1,1,$1+$1,$2,$3*
1,1,$1+$1,$4,$5*
1,1,$1+$1,$6,$7*
1,1,$1+$1,$8,$9*
0 Add four rect primitives between the rounded corners*
20,1,$1+$1,$2,$3,$4,$5,0*
20,1,$1+$1,$4,$5,$6,$7,0*
20,1,$1+$1,$6,$7,$8,$9,0*
20,1,$1+$1,$8,$9,$2,$3,0*%
G04 Aperture macros list end*
%ADD10C,0.100000*%
%ADD11C,0.120000*%
%TA.AperFunction,ComponentPad*%
%ADD12R,1.700000X1.700000*%
%TD*%
%TA.AperFunction,ComponentPad*%
%ADD13C,1.700000*%
%TD*%
%TA.AperFunction,ComponentPad*%
%ADD14RoundRect,0.249999X0.850001X0.850001X-0.850001X0.850001X-0.850001X-0.850001X0.850001X-0.850001X0*%
%TD*%
%TA.AperFunction,ComponentPad*%
%ADD15C,2.200000*%
%TD*%
%TA.AperFunction,ComponentPad*%
%ADD16RoundRect,0.249999X-0.850001X-0.850001X0.850001X-0.850001X0.850001X0.850001X-0.850001X0.850001X0*%
%TD*%
%TA.AperFunction,ComponentPad*%
%ADD17R,2.000000X1.905000*%
%TD*%
%TA.AperFunction,ComponentPad*%
%ADD18O,2.000000X1.905000*%
%TD*%
%TA.AperFunction,ComponentPad*%
%ADD19C,1.600000*%
%TD*%
%TA.AperFunction,ComponentPad*%
%ADD20R,1.800000X1.800000*%
%TD*%
%TA.AperFunction,ComponentPad*%
%ADD21C,1.800000*%
%TD*%
%TA.AperFunction,Conductor*%
%ADD22C,0.300000*%
%TD*%
%TA.AperFunction,Conductor*%
%ADD23C,0.500000*%
%TD*%
%ADD24R,1.700000X1.700000*%
%ADD25C,1.700000*%
%ADD26RoundRect,0.249999X0.850001X0.850001X-0.850001X0.850001X-0.850001X-0.850001X0.850001X-0.850001X0*%
%ADD27C,2.200000*%
%ADD28RoundRect,0.249999X-0.850001X-0.850001X0.850001X-0.850001X0.850001X0.850001X-0.850001X0.850001X0*%
%ADD29R,2.000000X1.905000*%
%ADD30O,2.000000X1.905000*%
%ADD31C,1.600000*%
%ADD32R,1.800000X1.800000*%
%ADD33C,1.800000*%
%ADD34C,0.050000*%
%TA.AperFunction,Profile*%
%ADD35C,0.050000*%
%TD*%
G04 APERTURE END LIST*
D10*
X151784836Y-63072419D02*
X151784836Y-62072419D01*
X151784836Y-62072419D02*
X151903884Y-62072419D01*
X151903884Y-62072419D02*
X151975312Y-62120038D01*
X151975312Y-62120038D02*
X152022931Y-62215276D01*
X152022931Y-62215276D02*
X152046741Y-62310514D01*
X152046741Y-62310514D02*
X152070550Y-62500990D01*
X152070550Y-62500990D02*
X152070550Y-62643847D01*
X152070550Y-62643847D02*
X152046741Y-62834323D01*
X152046741Y-62834323D02*
X152022931Y-62929561D01*
X152022931Y-62929561D02*
X151975312Y-63024800D01*
X151975312Y-63024800D02*
X151903884Y-63072419D01*
X151903884Y-63072419D02*
X151784836Y-63072419D01*
X152237217Y-62072419D02*
X152546741Y-62072419D01*
X152546741Y-62072419D02*
X152380074Y-62453371D01*
X152380074Y-62453371D02*
X152451503Y-62453371D01*
X152451503Y-62453371D02*
X152499122Y-62500990D01*
X152499122Y-62500990D02*
X152522931Y-62548609D01*
X152522931Y-62548609D02*
X152546741Y-62643847D01*
X152546741Y-62643847D02*
X152546741Y-62881942D01*
X152546741Y-62881942D02*
X152522931Y-62977180D01*
X152522931Y-62977180D02*
X152499122Y-63024800D01*
X152499122Y-63024800D02*
X152451503Y-63072419D01*
X152451503Y-63072419D02*
X152308646Y-63072419D01*
X152308646Y-63072419D02*
X152261027Y-63024800D01*
X152261027Y-63024800D02*
X152237217Y-62977180D01*
X151784836Y-59272419D02*
X151784836Y-58272419D01*
X151784836Y-58272419D02*
X151903884Y-58272419D01*
X151903884Y-58272419D02*
X151975312Y-58320038D01*
X151975312Y-58320038D02*
X152022931Y-58415276D01*
X152022931Y-58415276D02*
X152046741Y-58510514D01*
X152046741Y-58510514D02*
X152070550Y-58700990D01*
X152070550Y-58700990D02*
X152070550Y-58843847D01*
X152070550Y-58843847D02*
X152046741Y-59034323D01*
X152046741Y-59034323D02*
X152022931Y-59129561D01*
X152022931Y-59129561D02*
X151975312Y-59224800D01*
X151975312Y-59224800D02*
X151903884Y-59272419D01*
X151903884Y-59272419D02*
X151784836Y-59272419D01*
X152261027Y-58367657D02*
X152284836Y-58320038D01*
X152284836Y-58320038D02*
X152332455Y-58272419D01*
X152332455Y-58272419D02*
X152451503Y-58272419D01*
X152451503Y-58272419D02*
X152499122Y-58320038D01*
X152499122Y-58320038D02*
X152522931Y-58367657D01*
X152522931Y-58367657D02*
X152546741Y-58462895D01*
X152546741Y-58462895D02*
X152546741Y-58558133D01*
X152546741Y-58558133D02*
X152522931Y-58700990D01*
X152522931Y-58700990D02*
X152237217Y-59272419D01*
X152237217Y-59272419D02*
X152546741Y-59272419D01*
X161780074Y-76472419D02*
X161303884Y-76472419D01*
X161303884Y-76472419D02*
X161256265Y-76948609D01*
X161256265Y-76948609D02*
X161303884Y-76900990D01*
X161303884Y-76900990D02*
X161399122Y-76853371D01*
X161399122Y-76853371D02*
X161637217Y-76853371D01*
X161637217Y-76853371D02*
X161732455Y-76900990D01*
X161732455Y-76900990D02*
X161780074Y-76948609D01*
X161780074Y-76948609D02*
X161827693Y-77043847D01*
X161827693Y-77043847D02*
X161827693Y-77281942D01*
X161827693Y-77281942D02*
X161780074Y-77377180D01*
X161780074Y-77377180D02*
X161732455Y-77424800D01*
X161732455Y-77424800D02*
X161637217Y-77472419D01*
X161637217Y-77472419D02*
X161399122Y-77472419D01*
X161399122Y-77472419D02*
X161303884Y-77424800D01*
X161303884Y-77424800D02*
X161256265Y-77377180D01*
X162113408Y-76472419D02*
X162446741Y-77472419D01*
X162446741Y-77472419D02*
X162780074Y-76472419D01*
X171872419Y-69124687D02*
X171396228Y-69458020D01*
X171872419Y-69696115D02*
X170872419Y-69696115D01*
X170872419Y-69696115D02*
X170872419Y-69315163D01*
X170872419Y-69315163D02*
X170920038Y-69219925D01*
X170920038Y-69219925D02*
X170967657Y-69172306D01*
X170967657Y-69172306D02*
X171062895Y-69124687D01*
X171062895Y-69124687D02*
X171205752Y-69124687D01*
X171205752Y-69124687D02*
X171300990Y-69172306D01*
X171300990Y-69172306D02*
X171348609Y-69219925D01*
X171348609Y-69219925D02*
X171396228Y-69315163D01*
X171396228Y-69315163D02*
X171396228Y-69696115D01*
X171348609Y-68696115D02*
X171348609Y-68362782D01*
X171872419Y-68219925D02*
X171872419Y-68696115D01*
X171872419Y-68696115D02*
X170872419Y-68696115D01*
X170872419Y-68696115D02*
X170872419Y-68219925D01*
X170920038Y-67267544D02*
X170872419Y-67362782D01*
X170872419Y-67362782D02*
X170872419Y-67505639D01*
X170872419Y-67505639D02*
X170920038Y-67648496D01*
X170920038Y-67648496D02*
X171015276Y-67743734D01*
X171015276Y-67743734D02*
X171110514Y-67791353D01*
X171110514Y-67791353D02*
X171300990Y-67838972D01*
X171300990Y-67838972D02*
X171443847Y-67838972D01*
X171443847Y-67838972D02*
X171634323Y-67791353D01*
X171634323Y-67791353D02*
X171729561Y-67743734D01*
X171729561Y-67743734D02*
X171824800Y-67648496D01*
X171824800Y-67648496D02*
X171872419Y-67505639D01*
X171872419Y-67505639D02*
X171872419Y-67410401D01*
X171872419Y-67410401D02*
X171824800Y-67267544D01*
X171824800Y-67267544D02*
X171777180Y-67219925D01*
X171777180Y-67219925D02*
X171443847Y-67219925D01*
X171443847Y-67219925D02*
X171443847Y-67410401D01*
X154980074Y-77333609D02*
X154503884Y-77333609D01*
X154503884Y-77333609D02*
X154503884Y-76833609D01*
X155694360Y-77309800D02*
X155599122Y-77333609D01*
X155599122Y-77333609D02*
X155408646Y-77333609D01*
X155408646Y-77333609D02*
X155313408Y-77309800D01*
X155313408Y-77309800D02*
X155265789Y-77262180D01*
X155265789Y-77262180D02*
X155265789Y-77071704D01*
X155265789Y-77071704D02*
X155313408Y-77024085D01*
X155313408Y-77024085D02*
X155408646Y-77000276D01*
X155408646Y-77000276D02*
X155599122Y-77000276D01*
X155599122Y-77000276D02*
X155694360Y-77024085D01*
X155694360Y-77024085D02*
X155741979Y-77071704D01*
X155741979Y-77071704D02*
X155741979Y-77119323D01*
X155741979Y-77119323D02*
X155265789Y-77166942D01*
X156599122Y-77333609D02*
X156599122Y-76833609D01*
X156599122Y-77309800D02*
X156503884Y-77333609D01*
X156503884Y-77333609D02*
X156313408Y-77333609D01*
X156313408Y-77333609D02*
X156218170Y-77309800D01*
X156218170Y-77309800D02*
X156170551Y-77285990D01*
X156170551Y-77285990D02*
X156122932Y-77238371D01*
X156122932Y-77238371D02*
X156122932Y-77095514D01*
X156122932Y-77095514D02*
X156170551Y-77047895D01*
X156170551Y-77047895D02*
X156218170Y-77024085D01*
X156218170Y-77024085D02*
X156313408Y-77000276D01*
X156313408Y-77000276D02*
X156503884Y-77000276D01*
X156503884Y-77000276D02*
X156599122Y-77024085D01*
X151784836Y-55272419D02*
X151784836Y-54272419D01*
X151784836Y-54272419D02*
X151903884Y-54272419D01*
X151903884Y-54272419D02*
X151975312Y-54320038D01*
X151975312Y-54320038D02*
X152022931Y-54415276D01*
X152022931Y-54415276D02*
X152046741Y-54510514D01*
X152046741Y-54510514D02*
X152070550Y-54700990D01*
X152070550Y-54700990D02*
X152070550Y-54843847D01*
X152070550Y-54843847D02*
X152046741Y-55034323D01*
X152046741Y-55034323D02*
X152022931Y-55129561D01*
X152022931Y-55129561D02*
X151975312Y-55224800D01*
X151975312Y-55224800D02*
X151903884Y-55272419D01*
X151903884Y-55272419D02*
X151784836Y-55272419D01*
X152546741Y-55272419D02*
X152261027Y-55272419D01*
X152403884Y-55272419D02*
X152403884Y-54272419D01*
X152403884Y-54272419D02*
X152356265Y-54415276D01*
X152356265Y-54415276D02*
X152308646Y-54510514D01*
X152308646Y-54510514D02*
X152261027Y-54558133D01*
X151784836Y-67272419D02*
X151784836Y-66272419D01*
X151784836Y-66272419D02*
X151903884Y-66272419D01*
X151903884Y-66272419D02*
X151975312Y-66320038D01*
X151975312Y-66320038D02*
X152022931Y-66415276D01*
X152022931Y-66415276D02*
X152046741Y-66510514D01*
X152046741Y-66510514D02*
X152070550Y-66700990D01*
X152070550Y-66700990D02*
X152070550Y-66843847D01*
X152070550Y-66843847D02*
X152046741Y-67034323D01*
X152046741Y-67034323D02*
X152022931Y-67129561D01*
X152022931Y-67129561D02*
X151975312Y-67224800D01*
X151975312Y-67224800D02*
X151903884Y-67272419D01*
X151903884Y-67272419D02*
X151784836Y-67272419D01*
X152499122Y-66605752D02*
X152499122Y-67272419D01*
X152380074Y-66224800D02*
X152261027Y-66939085D01*
X152261027Y-66939085D02*
X152570550Y-66939085D01*
X168332455Y-51624800D02*
X168237217Y-51672419D01*
X168237217Y-51672419D02*
X168046741Y-51672419D01*
X168046741Y-51672419D02*
X167951503Y-51624800D01*
X167951503Y-51624800D02*
X167903884Y-51577180D01*
X167903884Y-51577180D02*
X167856265Y-51481942D01*
X167856265Y-51481942D02*
X167856265Y-51196228D01*
X167856265Y-51196228D02*
X167903884Y-51100990D01*
X167903884Y-51100990D02*
X167951503Y-51053371D01*
X167951503Y-51053371D02*
X168046741Y-51005752D01*
X168046741Y-51005752D02*
X168237217Y-51005752D01*
X168237217Y-51005752D02*
X168332455Y-51053371D01*
X169189598Y-51672419D02*
X169189598Y-51148609D01*
X169189598Y-51148609D02*
X169141979Y-51053371D01*
X169141979Y-51053371D02*
X169046741Y-51005752D01*
X169046741Y-51005752D02*
X168856265Y-51005752D01*
X168856265Y-51005752D02*
X168761027Y-51053371D01*
X169189598Y-51624800D02*
X169094360Y-51672419D01*
X169094360Y-51672419D02*
X168856265Y-51672419D01*
X168856265Y-51672419D02*
X168761027Y-51624800D01*
X168761027Y-51624800D02*
X168713408Y-51529561D01*
X168713408Y-51529561D02*
X168713408Y-51434323D01*
X168713408Y-51434323D02*
X168761027Y-51339085D01*
X168761027Y-51339085D02*
X168856265Y-51291466D01*
X168856265Y-51291466D02*
X169094360Y-51291466D01*
X169094360Y-51291466D02*
X169189598Y-51243847D01*
X169665789Y-51005752D02*
X169665789Y-52005752D01*
X169665789Y-51053371D02*
X169761027Y-51005752D01*
X169761027Y-51005752D02*
X169951503Y-51005752D01*
X169951503Y-51005752D02*
X170046741Y-51053371D01*
X170046741Y-51053371D02*
X170094360Y-51100990D01*
X170094360Y-51100990D02*
X170141979Y-51196228D01*
X170141979Y-51196228D02*
X170141979Y-51481942D01*
X170141979Y-51481942D02*
X170094360Y-51577180D01*
X170094360Y-51577180D02*
X170046741Y-51624800D01*
X170046741Y-51624800D02*
X169951503Y-51672419D01*
X169951503Y-51672419D02*
X169761027Y-51672419D01*
X169761027Y-51672419D02*
X169665789Y-51624800D01*
%TO.C,J2*%
D11*
X160695000Y-73020000D02*
X160695000Y-75620000D01*
X160695000Y-73020000D02*
X163355000Y-73020000D01*
X160695000Y-75620000D02*
X163355000Y-75620000D01*
X162025000Y-70420000D02*
X163355000Y-70420000D01*
X163355000Y-70420000D02*
X163355000Y-71750000D01*
X163355000Y-73020000D02*
X163355000Y-75620000D01*
%TO.C,D3*%
X155280000Y-61430000D02*
X155280000Y-61560000D01*
X155280000Y-64370000D02*
X155280000Y-64240000D01*
X159700000Y-64370000D02*
X159700000Y-61430000D01*
X159820000Y-64370000D02*
X159820000Y-61430000D01*
X159940000Y-64370000D02*
X159940000Y-61430000D01*
X160720000Y-61430000D02*
X155280000Y-61430000D01*
X160720000Y-61560000D02*
X160720000Y-61430000D01*
X160720000Y-64240000D02*
X160720000Y-64370000D01*
X160720000Y-64370000D02*
X155280000Y-64370000D01*
%TO.C,D1*%
X155320000Y-53530000D02*
X160760000Y-53530000D01*
X155320000Y-53660000D02*
X155320000Y-53530000D01*
X155320000Y-56340000D02*
X155320000Y-56470000D01*
X155320000Y-56470000D02*
X160760000Y-56470000D01*
X156100000Y-53530000D02*
X156100000Y-56470000D01*
X156220000Y-53530000D02*
X156220000Y-56470000D01*
X156340000Y-53530000D02*
X156340000Y-56470000D01*
X160760000Y-53530000D02*
X160760000Y-53660000D01*
X160760000Y-56470000D02*
X160760000Y-56340000D01*
%TO.C,D4*%
X155320000Y-65680000D02*
X160760000Y-65680000D01*
X155320000Y-65810000D02*
X155320000Y-65680000D01*
X155320000Y-68490000D02*
X155320000Y-68620000D01*
X155320000Y-68620000D02*
X160760000Y-68620000D01*
X156100000Y-65680000D02*
X156100000Y-68620000D01*
X156220000Y-65680000D02*
X156220000Y-68620000D01*
X156340000Y-65680000D02*
X156340000Y-68620000D01*
X160760000Y-65680000D02*
X160760000Y-65810000D01*
X160760000Y-68620000D02*
X160760000Y-68490000D01*
%TO.C,U1*%
X165140000Y-63890000D02*
X165140000Y-74110000D01*
X168380000Y-63890000D02*
X168380000Y-74110000D01*
X169760000Y-63890000D02*
X165140000Y-63890000D01*
X169760000Y-63890000D02*
X169760000Y-74110000D01*
X169760000Y-67150000D02*
X168380000Y-67150000D01*
X169760000Y-70850000D02*
X168380000Y-70850000D01*
X169760000Y-74110000D02*
X165140000Y-74110000D01*
%TO.C,C1*%
X174120000Y-57500000D02*
G75*
G02*
X163880000Y-57500000I-5120000J0D01*
G01*
X163880000Y-57500000D02*
G75*
G02*
X174120000Y-57500000I5120000J0D01*
G01*
%TO.C,D2*%
X155280000Y-57180000D02*
X155280000Y-57310000D01*
X155280000Y-60120000D02*
X155280000Y-59990000D01*
X159700000Y-60120000D02*
X159700000Y-57180000D01*
X159820000Y-60120000D02*
X159820000Y-57180000D01*
X159940000Y-60120000D02*
X159940000Y-57180000D01*
X160720000Y-57180000D02*
X155280000Y-57180000D01*
X160720000Y-57310000D02*
X160720000Y-57180000D01*
X160720000Y-59990000D02*
X160720000Y-60120000D01*
X160720000Y-60120000D02*
X155280000Y-60120000D01*
%TO.C,D5*%
X157545000Y-70710000D02*
X154455000Y-70710000D01*
X156000000Y-76260000D02*
G75*
G02*
X154455170Y-70710000I0J2990000D01*
G01*
X157544830Y-70710000D02*
G75*
G02*
X156000000Y-76260000I-1544830J-2560000D01*
G01*
X158500000Y-73270000D02*
G75*
G02*
X153500000Y-73270000I-2500000J0D01*
G01*
X153500000Y-73270000D02*
G75*
G02*
X158500000Y-73270000I2500000J0D01*
G01*
%TD*%
D12*
%TO.P,J2,1,Pin_1*%
%TO.N,GND*%
X162025000Y-71750000D03*
D13*
%TO.P,J2,2,Pin_2*%
%TO.N,/out*%
X162025000Y-74290000D03*
%TD*%
D14*
%TO.P,D3,1,K*%
%TO.N,/+ve*%
X161810000Y-62900000D03*
D15*
%TO.P,D3,2,A*%
%TO.N,GND*%
X154190000Y-62900000D03*
%TD*%
D16*
%TO.P,D1,1,K*%
%TO.N,VCC*%
X154230000Y-55000000D03*
D15*
%TO.P,D1,2,A*%
%TO.N,/-ve*%
X161850000Y-55000000D03*
%TD*%
D16*
%TO.P,D4,1,K*%
%TO.N,GND*%
X154230000Y-67150000D03*
D15*
%TO.P,D4,2,A*%
%TO.N,/-ve*%
X161850000Y-67150000D03*
%TD*%
D17*
%TO.P,U1,1,IN*%
%TO.N,/+ve*%
X166500000Y-66460000D03*
D18*
%TO.P,U1,2,GND*%
%TO.N,GND*%
X166500000Y-69000000D03*
%TO.P,U1,3,OUT*%
%TO.N,/out*%
X166500000Y-71540000D03*
%TD*%
D19*
%TO.P,C1,1*%
%TO.N,/+ve*%
X166500000Y-57500000D03*
%TO.P,C1,2*%
%TO.N,/-ve*%
X171500000Y-57500000D03*
%TD*%
D14*
%TO.P,D2,1,K*%
%TO.N,/+ve*%
X161810000Y-58650000D03*
D15*
%TO.P,D2,2,A*%
%TO.N,VCC*%
X154190000Y-58650000D03*
%TD*%
D20*
%TO.P,D5,1,K*%
%TO.N,GND*%
X156000000Y-72000000D03*
D21*
%TO.P,D5,2,A*%
%TO.N,/out*%
X156000000Y-74540000D03*
%TD*%
%TO.N,/-ve*%
D22*
X161850000Y-55000000D02*
X160200000Y-56650000D01*
X160200000Y-56650000D02*
X160200000Y-65500000D01*
X160200000Y-65500000D02*
X161850000Y-67150000D01*
X171500000Y-57500000D02*
X169000000Y-55000000D01*
X169000000Y-55000000D02*
X161850000Y-55000000D01*
%TO.N,/+ve*%
X161810000Y-62900000D02*
X162940000Y-62900000D01*
X161850000Y-58650000D02*
X163000000Y-57500000D01*
X161810000Y-58650000D02*
X161810000Y-62900000D01*
X163000000Y-57500000D02*
X166500000Y-57500000D01*
X161810000Y-58650000D02*
X161850000Y-58650000D01*
X162940000Y-62900000D02*
X166500000Y-66460000D01*
%TO.N,GND*%
D23*
X154190000Y-67110000D02*
X154230000Y-67150000D01*
X156000000Y-72000000D02*
X156000000Y-68920000D01*
X154190000Y-62900000D02*
X154190000Y-67110000D01*
X164775000Y-69000000D02*
X162025000Y-71750000D01*
X156000000Y-72000000D02*
X157000000Y-72000000D01*
X157250000Y-71750000D02*
X162025000Y-71750000D01*
X166500000Y-69000000D02*
X164775000Y-69000000D01*
X157000000Y-72000000D02*
X157250000Y-71750000D01*
X156000000Y-68920000D02*
X154230000Y-67150000D01*
%TO.N,VCC*%
X154190000Y-55040000D02*
X154230000Y-55000000D01*
X154190000Y-58650000D02*
X154190000Y-55040000D01*
%TO.N,/out*%
D22*
X156000000Y-74540000D02*
X161775000Y-74540000D01*
X161775000Y-74540000D02*
X162025000Y-74290000D01*
X166500000Y-71540000D02*
X164775000Y-71540000D01*
X164775000Y-71540000D02*
X162025000Y-74290000D01*
%TD*%
%TA.AperFunction,Conductor*%
%TO.N,GND*%
G36*
X174442539Y-51020185D02*
G01*
X174488294Y-51072989D01*
X174499500Y-51124500D01*
X174499500Y-77375500D01*
X174479815Y-77442539D01*
X174427011Y-77488294D01*
X174375500Y-77499500D01*
X151624500Y-77499500D01*
X151557461Y-77479815D01*
X151511706Y-77427011D01*
X151500500Y-77375500D01*
X151500500Y-74429778D01*
X154599500Y-74429778D01*
X154599500Y-74650221D01*
X154633985Y-74867952D01*
X154702103Y-75077603D01*
X154702104Y-75077606D01*
X154802187Y-75274025D01*
X154931752Y-75452358D01*
X154931756Y-75452363D01*
X155087636Y-75608243D01*
X155087641Y-75608247D01*
X155243192Y-75721260D01*
X155265978Y-75737815D01*
X155394375Y-75803237D01*
X155462393Y-75837895D01*
X155462396Y-75837896D01*
X155567221Y-75871955D01*
X155672049Y-75906015D01*
X155889778Y-75940500D01*
X155889779Y-75940500D01*
X156110221Y-75940500D01*
X156110222Y-75940500D01*
X156327951Y-75906015D01*
X156537606Y-75837895D01*
X156734022Y-75737815D01*
X156912365Y-75608242D01*
X157068242Y-75452365D01*
X157197815Y-75274022D01*
X157205874Y-75258204D01*
X157253848Y-75207409D01*
X157316359Y-75190500D01*
X160964242Y-75190500D01*
X161031281Y-75210185D01*
X161051923Y-75226819D01*
X161145213Y-75320109D01*
X161317179Y-75445048D01*
X161317181Y-75445049D01*
X161317184Y-75445051D01*
X161506588Y-75541557D01*
X161708757Y-75607246D01*
X161918713Y-75640500D01*
X161918714Y-75640500D01*
X162131286Y-75640500D01*
X162131287Y-75640500D01*
X162341243Y-75607246D01*
X162543412Y-75541557D01*
X162732816Y-75445051D01*
X162754789Y-75429086D01*
X162904786Y-75320109D01*
X162904788Y-75320106D01*
X162904792Y-75320104D01*
X163055104Y-75169792D01*
X163055106Y-75169788D01*
X163055109Y-75169786D01*
X163180048Y-74997820D01*
X163180047Y-74997820D01*
X163180051Y-74997816D01*
X163276557Y-74808412D01*
X163342246Y-74606243D01*
X163375500Y-74396287D01*
X163375500Y-74183713D01*
X163342246Y-73973757D01*
X163341484Y-73968945D01*
X163343123Y-73968685D01*
X163346257Y-73906126D01*
X163375655Y-73859289D01*
X164995814Y-72239131D01*
X165057135Y-72205648D01*
X165126827Y-72210632D01*
X165182760Y-72252504D01*
X165193977Y-72270518D01*
X165209783Y-72301538D01*
X165344214Y-72486566D01*
X165505934Y-72648286D01*
X165690962Y-72782717D01*
X165894742Y-72886548D01*
X165894744Y-72886549D01*
X166112251Y-72957221D01*
X166112252Y-72957221D01*
X166112255Y-72957222D01*
X166338146Y-72993000D01*
X166338147Y-72993000D01*
X166661853Y-72993000D01*
X166661854Y-72993000D01*
X166887745Y-72957222D01*
X166887748Y-72957221D01*
X166887749Y-72957221D01*
X167105255Y-72886549D01*
X167105255Y-72886548D01*
X167105258Y-72886548D01*
X167309038Y-72782717D01*
X167494066Y-72648286D01*
X167655786Y-72486566D01*
X167790217Y-72301538D01*
X167894048Y-72097758D01*
X167907289Y-72057007D01*
X167964721Y-71880249D01*
X167964721Y-71880248D01*
X167964722Y-71880245D01*
X168000500Y-71654354D01*
X168000500Y-71425646D01*
X167964722Y-71199755D01*
X167964721Y-71199751D01*
X167964721Y-71199750D01*
X167894049Y-70982244D01*
X167859530Y-70914497D01*
X167790217Y-70778462D01*
X167655786Y-70593434D01*
X167494066Y-70431714D01*
X167409134Y-70370007D01*
X167366470Y-70314678D01*
X167360491Y-70245064D01*
X167393097Y-70183269D01*
X167409137Y-70169371D01*
X167493739Y-70107905D01*
X167655402Y-69946242D01*
X167789788Y-69761276D01*
X167893582Y-69557570D01*
X167964234Y-69340128D01*
X167978509Y-69250000D01*
X166990748Y-69250000D01*
X167012518Y-69212292D01*
X167050000Y-69072409D01*
X167050000Y-68927591D01*
X167012518Y-68787708D01*
X166990748Y-68750000D01*
X167978509Y-68750000D01*
X167964234Y-68659871D01*
X167893582Y-68442429D01*
X167789788Y-68238723D01*
X167656988Y-68055940D01*
X167633508Y-67990133D01*
X167649333Y-67922079D01*
X167699439Y-67873384D01*
X167713966Y-67866875D01*
X167742331Y-67856296D01*
X167857546Y-67770046D01*
X167943796Y-67654831D01*
X167994091Y-67519983D01*
X168000500Y-67460373D01*
X168000499Y-65459628D01*
X167994091Y-65400017D01*
X167943796Y-65265169D01*
X167943795Y-65265168D01*
X167943793Y-65265164D01*
X167857547Y-65149955D01*
X167857544Y-65149952D01*
X167742335Y-65063706D01*
X167742328Y-65063702D01*
X167607482Y-65013408D01*
X167607483Y-65013408D01*
X167547883Y-65007001D01*
X167547881Y-65007000D01*
X167547873Y-65007000D01*
X167547865Y-65007000D01*
X166018308Y-65007000D01*
X165951269Y-64987315D01*
X165930627Y-64970681D01*
X163446819Y-62486873D01*
X163413334Y-62425550D01*
X163410500Y-62399192D01*
X163410500Y-61999995D01*
X163410499Y-61999982D01*
X163399999Y-61897203D01*
X163399999Y-61897202D01*
X163344814Y-61730665D01*
X163252712Y-61581344D01*
X163128656Y-61457288D01*
X162979335Y-61365186D01*
X162812798Y-61310001D01*
X162812796Y-61310000D01*
X162710017Y-61299500D01*
X162710010Y-61299500D01*
X162584500Y-61299500D01*
X162517461Y-61279815D01*
X162471706Y-61227011D01*
X162460500Y-61175500D01*
X162460500Y-60374500D01*
X162480185Y-60307461D01*
X162532989Y-60261706D01*
X162584500Y-60250500D01*
X162710005Y-60250500D01*
X162710010Y-60250500D01*
X162812798Y-60239999D01*
X162979335Y-60184814D01*
X163128656Y-60092712D01*
X163252712Y-59968656D01*
X163344814Y-59819335D01*
X163399999Y-59652798D01*
X163410500Y-59550010D01*
X163410500Y-58274500D01*
X163430185Y-58207461D01*
X163482989Y-58161706D01*
X163534500Y-58150500D01*
X165301929Y-58150500D01*
X165368968Y-58170185D01*
X165402245Y-58201613D01*
X165508030Y-58347213D01*
X165508034Y-58347219D01*
X165652786Y-58491971D01*
X165807749Y-58604556D01*
X165818390Y-58612287D01*
X165934607Y-58671503D01*
X166000776Y-58705218D01*
X166000778Y-58705218D01*
X166000781Y-58705220D01*
X166105137Y-58739127D01*
X166195465Y-58768477D01*
X166296557Y-58784488D01*
X166397648Y-58800500D01*
X166397649Y-58800500D01*
X166602351Y-58800500D01*
X166602352Y-58800500D01*
X166804534Y-58768477D01*
X166999219Y-58705220D01*
X167181610Y-58612287D01*
X167274590Y-58544732D01*
X167347213Y-58491971D01*
X167347215Y-58491968D01*
X167347219Y-58491966D01*
X167491966Y-58347219D01*
X167491968Y-58347215D01*
X167491971Y-58347213D01*
X167593505Y-58207461D01*
X167612287Y-58181610D01*
X167705220Y-57999219D01*
X167768477Y-57804534D01*
X167800500Y-57602352D01*
X167800500Y-57397648D01*
X167780379Y-57270612D01*
X167768477Y-57195465D01*
X167720129Y-57046666D01*
X167705220Y-57000781D01*
X167705218Y-57000778D01*
X167705218Y-57000776D01*
X167665861Y-56923534D01*
X167612287Y-56818390D01*
X167597753Y-56798385D01*
X167491971Y-56652786D01*
X167347213Y-56508028D01*
X167181613Y-56387715D01*
X167181612Y-56387714D01*
X167181610Y-56387713D01*
X167124653Y-56358691D01*
X166999223Y-56294781D01*
X166804534Y-56231522D01*
X166629995Y-56203878D01*
X166602352Y-56199500D01*
X166397648Y-56199500D01*
X166373329Y-56203351D01*
X166195465Y-56231522D01*
X166000776Y-56294781D01*
X165818386Y-56387715D01*
X165652786Y-56508028D01*
X165508034Y-56652780D01*
X165451597Y-56730460D01*
X165402246Y-56798386D01*
X165346918Y-56841051D01*
X165301929Y-56849500D01*
X162935929Y-56849500D01*
X162810261Y-56874497D01*
X162810251Y-56874500D01*
X162761220Y-56894810D01*
X162691881Y-56923530D01*
X162691863Y-56923540D01*
X162585332Y-56994721D01*
X162585325Y-56994727D01*
X162566872Y-57013181D01*
X162505549Y-57046666D01*
X162479191Y-57049500D01*
X161019808Y-57049500D01*
X160952769Y-57029815D01*
X160907014Y-56977011D01*
X160897070Y-56907853D01*
X160926095Y-56844297D01*
X160932115Y-56837830D01*
X161220448Y-56549496D01*
X161281767Y-56516014D01*
X161346443Y-56519248D01*
X161475215Y-56561090D01*
X161724038Y-56600500D01*
X161724039Y-56600500D01*
X161975961Y-56600500D01*
X161975962Y-56600500D01*
X162224785Y-56561090D01*
X162464379Y-56483241D01*
X162688845Y-56368870D01*
X162892656Y-56220793D01*
X163070793Y-56042656D01*
X163218870Y-55838845D01*
X163280339Y-55718205D01*
X163328314Y-55667409D01*
X163390824Y-55650500D01*
X168679192Y-55650500D01*
X168746231Y-55670185D01*
X168766873Y-55686819D01*
X170192862Y-57112808D01*
X170226347Y-57174131D01*
X170227654Y-57219886D01*
X170199500Y-57397647D01*
X170199500Y-57602351D01*
X170231522Y-57804534D01*
X170294781Y-57999223D01*
X170358691Y-58124653D01*
X170377571Y-58161706D01*
X170387715Y-58181613D01*
X170508028Y-58347213D01*
X170652786Y-58491971D01*
X170807749Y-58604556D01*
X170818390Y-58612287D01*
X170934607Y-58671503D01*
X171000776Y-58705218D01*
X171000778Y-58705218D01*
X171000781Y-58705220D01*
X171105137Y-58739127D01*
X171195465Y-58768477D01*
X171296557Y-58784488D01*
X171397648Y-58800500D01*
X171397649Y-58800500D01*
X171602351Y-58800500D01*
X171602352Y-58800500D01*
X171804534Y-58768477D01*
X171999219Y-58705220D01*
X172181610Y-58612287D01*
X172274590Y-58544732D01*
X172347213Y-58491971D01*
X172347215Y-58491968D01*
X172347219Y-58491966D01*
X172491966Y-58347219D01*
X172491968Y-58347215D01*
X172491971Y-58347213D01*
X172593505Y-58207461D01*
X172612287Y-58181610D01*
X172705220Y-57999219D01*
X172768477Y-57804534D01*
X172800500Y-57602352D01*
X172800500Y-57397648D01*
X172780379Y-57270612D01*
X172768477Y-57195465D01*
X172720129Y-57046666D01*
X172705220Y-57000781D01*
X172705218Y-57000778D01*
X172705218Y-57000776D01*
X172665861Y-56923534D01*
X172612287Y-56818390D01*
X172597753Y-56798385D01*
X172491971Y-56652786D01*
X172347213Y-56508028D01*
X172181613Y-56387715D01*
X172181612Y-56387714D01*
X172181610Y-56387713D01*
X172124653Y-56358691D01*
X171999223Y-56294781D01*
X171804534Y-56231522D01*
X171629995Y-56203878D01*
X171602352Y-56199500D01*
X171397648Y-56199500D01*
X171219886Y-56227654D01*
X171150593Y-56218699D01*
X171112808Y-56192862D01*
X169414674Y-54494727D01*
X169414673Y-54494726D01*
X169414669Y-54494723D01*
X169308127Y-54423535D01*
X169189744Y-54374499D01*
X169189738Y-54374497D01*
X169064071Y-54349500D01*
X169064069Y-54349500D01*
X163390824Y-54349500D01*
X163323785Y-54329815D01*
X163280339Y-54281795D01*
X163269093Y-54259724D01*
X163218870Y-54161155D01*
X163174425Y-54099982D01*
X163070798Y-53957350D01*
X163070794Y-53957345D01*
X162892654Y-53779205D01*
X162892649Y-53779201D01*
X162688848Y-53631132D01*
X162688847Y-53631131D01*
X162688845Y-53631130D01*
X162618747Y-53595413D01*
X162464383Y-53516760D01*
X162224785Y-53438910D01*
X161975962Y-53399500D01*
X161724038Y-53399500D01*
X161657738Y-53410001D01*
X161475214Y-53438910D01*
X161235616Y-53516760D01*
X161011151Y-53631132D01*
X160807350Y-53779201D01*
X160807345Y-53779205D01*
X160629205Y-53957345D01*
X160629201Y-53957350D01*
X160481132Y-54161151D01*
X160366760Y-54385616D01*
X160288910Y-54625214D01*
X160249500Y-54874038D01*
X160249500Y-55125961D01*
X160288910Y-55374786D01*
X160288910Y-55374789D01*
X160330749Y-55503554D01*
X160332744Y-55573395D01*
X160300499Y-55629553D01*
X159694724Y-56235328D01*
X159655000Y-56294779D01*
X159655001Y-56294780D01*
X159623534Y-56341874D01*
X159574499Y-56460255D01*
X159574497Y-56460261D01*
X159549500Y-56585928D01*
X159549500Y-65564071D01*
X159559758Y-65615640D01*
X159569927Y-65666759D01*
X159574499Y-65689744D01*
X159623535Y-65808127D01*
X159646921Y-65843127D01*
X159694726Y-65914673D01*
X159694727Y-65914674D01*
X160300499Y-66520445D01*
X160333984Y-66581768D01*
X160330749Y-66646444D01*
X160288910Y-66775210D01*
X160288910Y-66775213D01*
X160269146Y-66900000D01*
X160249500Y-67024038D01*
X160249500Y-67275962D01*
X160269146Y-67400000D01*
X160288910Y-67524785D01*
X160366760Y-67764383D01*
X160481132Y-67988848D01*
X160629201Y-68192649D01*
X160629205Y-68192654D01*
X160807345Y-68370794D01*
X160807350Y-68370798D01*
X160916363Y-68450000D01*
X161011155Y-68518870D01*
X161154184Y-68591747D01*
X161235616Y-68633239D01*
X161235618Y-68633239D01*
X161235621Y-68633241D01*
X161475215Y-68711090D01*
X161724038Y-68750500D01*
X161724039Y-68750500D01*
X161975961Y-68750500D01*
X161975962Y-68750500D01*
X162224785Y-68711090D01*
X162464379Y-68633241D01*
X162688845Y-68518870D01*
X162892656Y-68370793D01*
X163070793Y-68192656D01*
X163218870Y-67988845D01*
X163333241Y-67764379D01*
X163411090Y-67524785D01*
X163450500Y-67275962D01*
X163450500Y-67024038D01*
X163411090Y-66775215D01*
X163333241Y-66535621D01*
X163333239Y-66535618D01*
X163333239Y-66535616D01*
X163291747Y-66454184D01*
X163218870Y-66311155D01*
X163099825Y-66147303D01*
X163070798Y-66107350D01*
X163070794Y-66107345D01*
X162892654Y-65929205D01*
X162892649Y-65929201D01*
X162688848Y-65781132D01*
X162688847Y-65781131D01*
X162688845Y-65781130D01*
X162618747Y-65745413D01*
X162464383Y-65666760D01*
X162224785Y-65588910D01*
X161975962Y-65549500D01*
X161724038Y-65549500D01*
X161654625Y-65560494D01*
X161475213Y-65588910D01*
X161475210Y-65588910D01*
X161346444Y-65630749D01*
X161276602Y-65632744D01*
X161220445Y-65600499D01*
X160886819Y-65266873D01*
X160853334Y-65205550D01*
X160850500Y-65179192D01*
X160850500Y-64624500D01*
X160870185Y-64557461D01*
X160922989Y-64511706D01*
X160974500Y-64500500D01*
X162710005Y-64500500D01*
X162710010Y-64500500D01*
X162812798Y-64489999D01*
X162979335Y-64434814D01*
X163128656Y-64342712D01*
X163208030Y-64263338D01*
X163269353Y-64229853D01*
X163339045Y-64234837D01*
X163383392Y-64263338D01*
X164963181Y-65843127D01*
X164996666Y-65904450D01*
X164999500Y-65930808D01*
X164999500Y-67460370D01*
X164999501Y-67460376D01*
X165005908Y-67519983D01*
X165056202Y-67654828D01*
X165056206Y-67654835D01*
X165142452Y-67770044D01*
X165142455Y-67770047D01*
X165257664Y-67856293D01*
X165257667Y-67856295D01*
X165257668Y-67856295D01*
X165257669Y-67856296D01*
X165286025Y-67866872D01*
X165341958Y-67908742D01*
X165366376Y-67974206D01*
X165351525Y-68042479D01*
X165343010Y-68055939D01*
X165210213Y-68238719D01*
X165106417Y-68442429D01*
X165035765Y-68659871D01*
X165021491Y-68750000D01*
X166009252Y-68750000D01*
X165987482Y-68787708D01*
X165950000Y-68927591D01*
X165950000Y-69072409D01*
X165987482Y-69212292D01*
X166009252Y-69250000D01*
X165021491Y-69250000D01*
X165035765Y-69340128D01*
X165106417Y-69557570D01*
X165210211Y-69761276D01*
X165344597Y-69946242D01*
X165506257Y-70107902D01*
X165506263Y-70107907D01*
X165590863Y-70169372D01*
X165633529Y-70224701D01*
X165639508Y-70294315D01*
X165606903Y-70356110D01*
X165590864Y-70370007D01*
X165505940Y-70431709D01*
X165505931Y-70431716D01*
X165344216Y-70593431D01*
X165344216Y-70593432D01*
X165344214Y-70593434D01*
X165298286Y-70656649D01*
X165209783Y-70778461D01*
X165187704Y-70821795D01*
X165139730Y-70872591D01*
X165077219Y-70889500D01*
X164710929Y-70889500D01*
X164585261Y-70914497D01*
X164585255Y-70914499D01*
X164466870Y-70963535D01*
X164360331Y-71034722D01*
X164360324Y-71034728D01*
X163431372Y-71963681D01*
X163370049Y-71997166D01*
X163343691Y-72000000D01*
X162458012Y-72000000D01*
X162490925Y-71942993D01*
X162525000Y-71815826D01*
X162525000Y-71684174D01*
X162490925Y-71557007D01*
X162458012Y-71500000D01*
X163375000Y-71500000D01*
X163375000Y-70852172D01*
X163374999Y-70852155D01*
X163368598Y-70792627D01*
X163368596Y-70792620D01*
X163318354Y-70657913D01*
X163318350Y-70657906D01*
X163232190Y-70542812D01*
X163232187Y-70542809D01*
X163117093Y-70456649D01*
X163117086Y-70456645D01*
X162982379Y-70406403D01*
X162982372Y-70406401D01*
X162922844Y-70400000D01*
X162275000Y-70400000D01*
X162275000Y-71316988D01*
X162217993Y-71284075D01*
X162090826Y-71250000D01*
X161959174Y-71250000D01*
X161832007Y-71284075D01*
X161775000Y-71316988D01*
X161775000Y-70400000D01*
X161127155Y-70400000D01*
X161067627Y-70406401D01*
X161067620Y-70406403D01*
X160932913Y-70456645D01*
X160932906Y-70456649D01*
X160817812Y-70542809D01*
X160817809Y-70542812D01*
X160731649Y-70657906D01*
X160731645Y-70657913D01*
X160681403Y-70792620D01*
X160681401Y-70792627D01*
X160675000Y-70852155D01*
X160675000Y-71500000D01*
X161591988Y-71500000D01*
X161559075Y-71557007D01*
X161525000Y-71684174D01*
X161525000Y-71815826D01*
X161559075Y-71942993D01*
X161591988Y-72000000D01*
X160675000Y-72000000D01*
X160675000Y-72647844D01*
X160681401Y-72707372D01*
X160681403Y-72707379D01*
X160731645Y-72842086D01*
X160731649Y-72842093D01*
X160817809Y-72957187D01*
X160817812Y-72957190D01*
X160932906Y-73043350D01*
X160932913Y-73043354D01*
X161064470Y-73092422D01*
X161120404Y-73134293D01*
X161144821Y-73199758D01*
X161129969Y-73268031D01*
X161108819Y-73296285D01*
X160994889Y-73410215D01*
X160869951Y-73582179D01*
X160773444Y-73771583D01*
X160767655Y-73789399D01*
X160762970Y-73803820D01*
X160723533Y-73861494D01*
X160659174Y-73888692D01*
X160645040Y-73889500D01*
X157316359Y-73889500D01*
X157249320Y-73869815D01*
X157205874Y-73821795D01*
X157197812Y-73805973D01*
X157068247Y-73627641D01*
X157068243Y-73627636D01*
X157017683Y-73577076D01*
X156984198Y-73515753D01*
X156989182Y-73446061D01*
X157031054Y-73390128D01*
X157062031Y-73373213D01*
X157142086Y-73343354D01*
X157142093Y-73343350D01*
X157257187Y-73257190D01*
X157257190Y-73257187D01*
X157343350Y-73142093D01*
X157343354Y-73142086D01*
X157393596Y-73007379D01*
X157393598Y-73007372D01*
X157399999Y-72947844D01*
X157400000Y-72947827D01*
X157400000Y-72250000D01*
X156375278Y-72250000D01*
X156419333Y-72173694D01*
X156450000Y-72059244D01*
X156450000Y-71940756D01*
X156419333Y-71826306D01*
X156375278Y-71750000D01*
X157400000Y-71750000D01*
X157400000Y-71052172D01*
X157399999Y-71052155D01*
X157393598Y-70992627D01*
X157393597Y-70992623D01*
X157356136Y-70892185D01*
X157356135Y-70892182D01*
X157343355Y-70857915D01*
X157343350Y-70857906D01*
X157257190Y-70742812D01*
X157257187Y-70742809D01*
X157142093Y-70656649D01*
X157142086Y-70656645D01*
X157007379Y-70606403D01*
X157007372Y-70606401D01*
X156947844Y-70600000D01*
X156250000Y-70600000D01*
X156250000Y-71624722D01*
X156173694Y-71580667D01*
X156059244Y-71550000D01*
X155940756Y-71550000D01*
X155826306Y-71580667D01*
X155750000Y-71624722D01*
X155750000Y-70600000D01*
X155052155Y-70600000D01*
X154992627Y-70606401D01*
X154992620Y-70606403D01*
X154857913Y-70656645D01*
X154857906Y-70656649D01*
X154742812Y-70742809D01*
X154742809Y-70742812D01*
X154656649Y-70857906D01*
X154656645Y-70857913D01*
X154606403Y-70992620D01*
X154606401Y-70992627D01*
X154600000Y-71052155D01*
X154600000Y-71750000D01*
X155624722Y-71750000D01*
X155580667Y-71826306D01*
X155550000Y-71940756D01*
X155550000Y-72059244D01*
X155580667Y-72173694D01*
X155624722Y-72250000D01*
X154600000Y-72250000D01*
X154600000Y-72947844D01*
X154606401Y-73007372D01*
X154606403Y-73007379D01*
X154656645Y-73142086D01*
X154656649Y-73142093D01*
X154742809Y-73257187D01*
X154742812Y-73257190D01*
X154857906Y-73343350D01*
X154857913Y-73343354D01*
X154937968Y-73373213D01*
X154993902Y-73415084D01*
X155018319Y-73480549D01*
X155003467Y-73548822D01*
X154982317Y-73577075D01*
X154931756Y-73627636D01*
X154931752Y-73627641D01*
X154802187Y-73805974D01*
X154702104Y-74002393D01*
X154702103Y-74002396D01*
X154633985Y-74212047D01*
X154599500Y-74429778D01*
X151500500Y-74429778D01*
X151500500Y-66250013D01*
X152630000Y-66250013D01*
X152630000Y-66900000D01*
X153739252Y-66900000D01*
X153717482Y-66937708D01*
X153680000Y-67077591D01*
X153680000Y-67222409D01*
X153717482Y-67362292D01*
X153739252Y-67400000D01*
X152630001Y-67400000D01*
X152630001Y-68049986D01*
X152640494Y-68152696D01*
X152640494Y-68152698D01*
X152695640Y-68319119D01*
X152695645Y-68319130D01*
X152787680Y-68468340D01*
X152787683Y-68468344D01*
X152911655Y-68592316D01*
X152911659Y-68592319D01*
X153060869Y-68684354D01*
X153060880Y-68684359D01*
X153227302Y-68739505D01*
X153330019Y-68749999D01*
X153979999Y-68749999D01*
X153980000Y-68749998D01*
X153980000Y-67640747D01*
X154017708Y-67662518D01*
X154157591Y-67700000D01*
X154302409Y-67700000D01*
X154442292Y-67662518D01*
X154480000Y-67640747D01*
X154480000Y-68749999D01*
X155129972Y-68749999D01*
X155129986Y-68749998D01*
X155232696Y-68739505D01*
X155232698Y-68739505D01*
X155399119Y-68684359D01*
X155399130Y-68684354D01*
X155548340Y-68592319D01*
X155548344Y-68592316D01*
X155672316Y-68468344D01*
X155672319Y-68468340D01*
X155764354Y-68319130D01*
X155764359Y-68319119D01*
X155819505Y-68152697D01*
X155829999Y-68049986D01*
X155830000Y-68049973D01*
X155830000Y-67400000D01*
X154720748Y-67400000D01*
X154742518Y-67362292D01*
X154780000Y-67222409D01*
X154780000Y-67077591D01*
X154742518Y-66937708D01*
X154720748Y-66900000D01*
X155829999Y-66900000D01*
X155829999Y-66250028D01*
X155829998Y-66250013D01*
X155819505Y-66147303D01*
X155819505Y-66147301D01*
X155764359Y-65980880D01*
X155764354Y-65980869D01*
X155672319Y-65831659D01*
X155672316Y-65831655D01*
X155548344Y-65707683D01*
X155548340Y-65707680D01*
X155399130Y-65615645D01*
X155399119Y-65615640D01*
X155232697Y-65560494D01*
X155129986Y-65550000D01*
X154480000Y-65550000D01*
X154480000Y-66659252D01*
X154442292Y-66637482D01*
X154302409Y-66600000D01*
X154157591Y-66600000D01*
X154017708Y-66637482D01*
X153980000Y-66659252D01*
X153980000Y-65550000D01*
X153330028Y-65550000D01*
X153330012Y-65550001D01*
X153227303Y-65560494D01*
X153227301Y-65560494D01*
X153060880Y-65615640D01*
X153060869Y-65615645D01*
X152911659Y-65707680D01*
X152911655Y-65707683D01*
X152787683Y-65831655D01*
X152787680Y-65831659D01*
X152695645Y-65980869D01*
X152695640Y-65980880D01*
X152640494Y-66147302D01*
X152630000Y-66250013D01*
X151500500Y-66250013D01*
X151500500Y-62774071D01*
X152590000Y-62774071D01*
X152590000Y-63025928D01*
X152629397Y-63274669D01*
X152707219Y-63514184D01*
X152821557Y-63738583D01*
X152895748Y-63840697D01*
X152895748Y-63840698D01*
X153666212Y-63070234D01*
X153677482Y-63112292D01*
X153749890Y-63237708D01*
X153852292Y-63340110D01*
X153977708Y-63412518D01*
X154019765Y-63423787D01*
X153249300Y-64194250D01*
X153351416Y-64268442D01*
X153575815Y-64382780D01*
X153815330Y-64460602D01*
X154064072Y-64500000D01*
X154315928Y-64500000D01*
X154564669Y-64460602D01*
X154804184Y-64382780D01*
X155028575Y-64268446D01*
X155028581Y-64268442D01*
X155130697Y-64194250D01*
X155130698Y-64194250D01*
X154360234Y-63423787D01*
X154402292Y-63412518D01*
X154527708Y-63340110D01*
X154630110Y-63237708D01*
X154702518Y-63112292D01*
X154713787Y-63070234D01*
X155484250Y-63840698D01*
X155484250Y-63840697D01*
X155558442Y-63738581D01*
X155558446Y-63738575D01*
X155672780Y-63514184D01*
X155750602Y-63274669D01*
X155790000Y-63025928D01*
X155790000Y-62774071D01*
X155750602Y-62525330D01*
X155672780Y-62285815D01*
X155558442Y-62061416D01*
X155484250Y-61959301D01*
X155484250Y-61959300D01*
X154713787Y-62729764D01*
X154702518Y-62687708D01*
X154630110Y-62562292D01*
X154527708Y-62459890D01*
X154402292Y-62387482D01*
X154360232Y-62376212D01*
X155130698Y-61605748D01*
X155028583Y-61531557D01*
X154804184Y-61417219D01*
X154564669Y-61339397D01*
X154315928Y-61300000D01*
X154064072Y-61300000D01*
X153815330Y-61339397D01*
X153575815Y-61417219D01*
X153351413Y-61531559D01*
X153249301Y-61605747D01*
X153249300Y-61605748D01*
X154019765Y-62376212D01*
X153977708Y-62387482D01*
X153852292Y-62459890D01*
X153749890Y-62562292D01*
X153677482Y-62687708D01*
X153666212Y-62729764D01*
X152895748Y-61959300D01*
X152895747Y-61959301D01*
X152821559Y-62061413D01*
X152707219Y-62285815D01*
X152629397Y-62525330D01*
X152590000Y-62774071D01*
X151500500Y-62774071D01*
X151500500Y-58524038D01*
X152589500Y-58524038D01*
X152589500Y-58775962D01*
X152628910Y-59024785D01*
X152706760Y-59264383D01*
X152821132Y-59488848D01*
X152969201Y-59692649D01*
X152969205Y-59692654D01*
X153147345Y-59870794D01*
X153147350Y-59870798D01*
X153325117Y-59999952D01*
X153351155Y-60018870D01*
X153494184Y-60091747D01*
X153575616Y-60133239D01*
X153575618Y-60133239D01*
X153575621Y-60133241D01*
X153815215Y-60211090D01*
X154064038Y-60250500D01*
X154064039Y-60250500D01*
X154315961Y-60250500D01*
X154315962Y-60250500D01*
X154564785Y-60211090D01*
X154804379Y-60133241D01*
X155028845Y-60018870D01*
X155232656Y-59870793D01*
X155410793Y-59692656D01*
X155558870Y-59488845D01*
X155673241Y-59264379D01*
X155751090Y-59024785D01*
X155790500Y-58775962D01*
X155790500Y-58524038D01*
X155751090Y-58275215D01*
X155673241Y-58035621D01*
X155673239Y-58035618D01*
X155673239Y-58035616D01*
X155631747Y-57954184D01*
X155558870Y-57811155D01*
X155539952Y-57785117D01*
X155410798Y-57607350D01*
X155410794Y-57607345D01*
X155232654Y-57429205D01*
X155232649Y-57429201D01*
X155028848Y-57281131D01*
X155008203Y-57270612D01*
X154957408Y-57222637D01*
X154940500Y-57160128D01*
X154940500Y-56724500D01*
X154960185Y-56657461D01*
X155012989Y-56611706D01*
X155064500Y-56600500D01*
X155130005Y-56600500D01*
X155130010Y-56600500D01*
X155232798Y-56589999D01*
X155399335Y-56534814D01*
X155548656Y-56442712D01*
X155672712Y-56318656D01*
X155764814Y-56169335D01*
X155819999Y-56002798D01*
X155830500Y-55900010D01*
X155830500Y-54099990D01*
X155819999Y-53997202D01*
X155764814Y-53830665D01*
X155672712Y-53681344D01*
X155548656Y-53557288D01*
X155399335Y-53465186D01*
X155232798Y-53410001D01*
X155232796Y-53410000D01*
X155130017Y-53399500D01*
X155130010Y-53399500D01*
X153329990Y-53399500D01*
X153329982Y-53399500D01*
X153227203Y-53410000D01*
X153227202Y-53410001D01*
X153144669Y-53437349D01*
X153060667Y-53465185D01*
X153060662Y-53465187D01*
X152911342Y-53557289D01*
X152787289Y-53681342D01*
X152695187Y-53830662D01*
X152695186Y-53830665D01*
X152640001Y-53997202D01*
X152640001Y-53997203D01*
X152640000Y-53997203D01*
X152629500Y-54099982D01*
X152629500Y-55900017D01*
X152640000Y-56002796D01*
X152695185Y-56169332D01*
X152695187Y-56169337D01*
X152713792Y-56199500D01*
X152787288Y-56318656D01*
X152911344Y-56442712D01*
X153060665Y-56534814D01*
X153227202Y-56589999D01*
X153328102Y-56600307D01*
X153392794Y-56626703D01*
X153432946Y-56683884D01*
X153439500Y-56723665D01*
X153439500Y-57160128D01*
X153419815Y-57227167D01*
X153371797Y-57270612D01*
X153351151Y-57281131D01*
X153147350Y-57429201D01*
X153147345Y-57429205D01*
X152969205Y-57607345D01*
X152969201Y-57607350D01*
X152821132Y-57811151D01*
X152706760Y-58035616D01*
X152628910Y-58275214D01*
X152594580Y-58491966D01*
X152589500Y-58524038D01*
X151500500Y-58524038D01*
X151500500Y-51124500D01*
X151520185Y-51057461D01*
X151572989Y-51011706D01*
X151624500Y-51000500D01*
X174375500Y-51000500D01*
X174442539Y-51020185D01*
G37*
%TD.AperFunction*%
%TD*%
%TA.AperFunction,Conductor*%
%TO.N,GND*%
G36*
X161102539Y-60270185D02*
G01*
X161148294Y-60322989D01*
X161159500Y-60374500D01*
X161159500Y-61175500D01*
X161156949Y-61184185D01*
X161158238Y-61193147D01*
X161147259Y-61217187D01*
X161139815Y-61242539D01*
X161132974Y-61248466D01*
X161129213Y-61256703D01*
X161106978Y-61270992D01*
X161087011Y-61288294D01*
X161076496Y-61290581D01*
X161070435Y-61294477D01*
X161035500Y-61299500D01*
X160974500Y-61299500D01*
X160907461Y-61279815D01*
X160861706Y-61227011D01*
X160850500Y-61175500D01*
X160850500Y-60374500D01*
X160870185Y-60307461D01*
X160922989Y-60261706D01*
X160974500Y-60250500D01*
X161035500Y-60250500D01*
X161102539Y-60270185D01*
G37*
%TD.AperFunction*%
%TD*%
D24*
%TO.C,J2*%
X162025000Y-71750000D03*
D25*
X162025000Y-74290000D03*
%TD*%
D26*
%TO.C,D3*%
X161810000Y-62900000D03*
D27*
X154190000Y-62900000D03*
%TD*%
D28*
%TO.C,D1*%
X154230000Y-55000000D03*
D27*
X161850000Y-55000000D03*
%TD*%
D28*
%TO.C,D4*%
X154230000Y-67150000D03*
D27*
X161850000Y-67150000D03*
%TD*%
D29*
%TO.C,U1*%
X166500000Y-66460000D03*
D30*
X166500000Y-69000000D03*
X166500000Y-71540000D03*
%TD*%
D31*
%TO.C,C1*%
X166500000Y-57500000D03*
X171500000Y-57500000D03*
%TD*%
D26*
%TO.C,D2*%
X161810000Y-58650000D03*
D27*
X154190000Y-58650000D03*
%TD*%
D32*
%TO.C,D5*%
X156000000Y-72000000D03*
D33*
X156000000Y-74540000D03*
%TD*%
D12*
%TO.P,J2,1,Pin_1*%
%TO.N,GND*%
X162025000Y-71750000D03*
D13*
%TO.P,J2,2,Pin_2*%
%TO.N,/out*%
X162025000Y-74290000D03*
%TD*%
D14*
%TO.P,D3,1,K*%
%TO.N,/+ve*%
X161810000Y-62900000D03*
D15*
%TO.P,D3,2,A*%
%TO.N,GND*%
X154190000Y-62900000D03*
%TD*%
D16*
%TO.P,D1,1,K*%
%TO.N,VCC*%
X154230000Y-55000000D03*
D15*
%TO.P,D1,2,A*%
%TO.N,/-ve*%
X161850000Y-55000000D03*
%TD*%
D16*
%TO.P,D4,1,K*%
%TO.N,GND*%
X154230000Y-67150000D03*
D15*
%TO.P,D4,2,A*%
%TO.N,/-ve*%
X161850000Y-67150000D03*
%TD*%
D17*
%TO.P,U1,1,IN*%
%TO.N,/+ve*%
X166500000Y-66460000D03*
D18*
%TO.P,U1,2,GND*%
%TO.N,GND*%
X166500000Y-69000000D03*
%TO.P,U1,3,OUT*%
%TO.N,/out*%
X166500000Y-71540000D03*
%TD*%
D19*
%TO.P,C1,1*%
%TO.N,/+ve*%
X166500000Y-57500000D03*
%TO.P,C1,2*%
%TO.N,/-ve*%
X171500000Y-57500000D03*
%TD*%
D14*
%TO.P,D2,1,K*%
%TO.N,/+ve*%
X161810000Y-58650000D03*
D15*
%TO.P,D2,2,A*%
%TO.N,VCC*%
X154190000Y-58650000D03*
%TD*%
D20*
%TO.P,D5,1,K*%
%TO.N,GND*%
X156000000Y-72000000D03*
D21*
%TO.P,D5,2,A*%
%TO.N,/out*%
X156000000Y-74540000D03*
%TD*%
%TA.AperFunction,Conductor*%
%TO.N,GND*%
G36*
X174442539Y-51020185D02*
G01*
X174488294Y-51072989D01*
X174499500Y-51124500D01*
X174499500Y-77375500D01*
X174479815Y-77442539D01*
X174427011Y-77488294D01*
X174375500Y-77499500D01*
X151624500Y-77499500D01*
X151557461Y-77479815D01*
X151511706Y-77427011D01*
X151500500Y-77375500D01*
X151500500Y-74429778D01*
X154599500Y-74429778D01*
X154599500Y-74650221D01*
X154633985Y-74867952D01*
X154702103Y-75077603D01*
X154702104Y-75077606D01*
X154802187Y-75274025D01*
X154931752Y-75452358D01*
X154931756Y-75452363D01*
X155087636Y-75608243D01*
X155087641Y-75608247D01*
X155243192Y-75721260D01*
X155265978Y-75737815D01*
X155394375Y-75803237D01*
X155462393Y-75837895D01*
X155462396Y-75837896D01*
X155567221Y-75871955D01*
X155672049Y-75906015D01*
X155889778Y-75940500D01*
X155889779Y-75940500D01*
X156110221Y-75940500D01*
X156110222Y-75940500D01*
X156327951Y-75906015D01*
X156537606Y-75837895D01*
X156734022Y-75737815D01*
X156912365Y-75608242D01*
X157068242Y-75452365D01*
X157197815Y-75274022D01*
X157297895Y-75077606D01*
X157366015Y-74867951D01*
X157400500Y-74650222D01*
X157400500Y-74429778D01*
X157366015Y-74212049D01*
X157356808Y-74183713D01*
X160674500Y-74183713D01*
X160674500Y-74396287D01*
X160707754Y-74606243D01*
X160722043Y-74650221D01*
X160773444Y-74808414D01*
X160869951Y-74997820D01*
X160994890Y-75169786D01*
X161145213Y-75320109D01*
X161317179Y-75445048D01*
X161317181Y-75445049D01*
X161317184Y-75445051D01*
X161506588Y-75541557D01*
X161708757Y-75607246D01*
X161918713Y-75640500D01*
X161918714Y-75640500D01*
X162131286Y-75640500D01*
X162131287Y-75640500D01*
X162341243Y-75607246D01*
X162543412Y-75541557D01*
X162732816Y-75445051D01*
X162754789Y-75429086D01*
X162904786Y-75320109D01*
X162904788Y-75320106D01*
X162904792Y-75320104D01*
X163055104Y-75169792D01*
X163055106Y-75169788D01*
X163055109Y-75169786D01*
X163180048Y-74997820D01*
X163180047Y-74997820D01*
X163180051Y-74997816D01*
X163276557Y-74808412D01*
X163342246Y-74606243D01*
X163375500Y-74396287D01*
X163375500Y-74183713D01*
X163342246Y-73973757D01*
X163276557Y-73771588D01*
X163180051Y-73582184D01*
X163180049Y-73582181D01*
X163180048Y-73582179D01*
X163055109Y-73410213D01*
X162941181Y-73296285D01*
X162907696Y-73234962D01*
X162912680Y-73165270D01*
X162954552Y-73109337D01*
X162985529Y-73092422D01*
X163117086Y-73043354D01*
X163117093Y-73043350D01*
X163232187Y-72957190D01*
X163232190Y-72957187D01*
X163318350Y-72842093D01*
X163318354Y-72842086D01*
X163368596Y-72707379D01*
X163368598Y-72707372D01*
X163374999Y-72647844D01*
X163375000Y-72647827D01*
X163375000Y-72000000D01*
X162458012Y-72000000D01*
X162490925Y-71942993D01*
X162525000Y-71815826D01*
X162525000Y-71684174D01*
X162490925Y-71557007D01*
X162458012Y-71500000D01*
X163375000Y-71500000D01*
X163375000Y-70852172D01*
X163374999Y-70852155D01*
X163368598Y-70792627D01*
X163368596Y-70792620D01*
X163318354Y-70657913D01*
X163318350Y-70657906D01*
X163232190Y-70542812D01*
X163232187Y-70542809D01*
X163117093Y-70456649D01*
X163117086Y-70456645D01*
X162982379Y-70406403D01*
X162982372Y-70406401D01*
X162922844Y-70400000D01*
X162275000Y-70400000D01*
X162275000Y-71316988D01*
X162217993Y-71284075D01*
X162090826Y-71250000D01*
X161959174Y-71250000D01*
X161832007Y-71284075D01*
X161775000Y-71316988D01*
X161775000Y-70400000D01*
X161127155Y-70400000D01*
X161067627Y-70406401D01*
X161067620Y-70406403D01*
X160932913Y-70456645D01*
X160932906Y-70456649D01*
X160817812Y-70542809D01*
X160817809Y-70542812D01*
X160731649Y-70657906D01*
X160731645Y-70657913D01*
X160681403Y-70792620D01*
X160681401Y-70792627D01*
X160675000Y-70852155D01*
X160675000Y-71500000D01*
X161591988Y-71500000D01*
X161559075Y-71557007D01*
X161525000Y-71684174D01*
X161525000Y-71815826D01*
X161559075Y-71942993D01*
X161591988Y-72000000D01*
X160675000Y-72000000D01*
X160675000Y-72647844D01*
X160681401Y-72707372D01*
X160681403Y-72707379D01*
X160731645Y-72842086D01*
X160731649Y-72842093D01*
X160817809Y-72957187D01*
X160817812Y-72957190D01*
X160932906Y-73043350D01*
X160932913Y-73043354D01*
X161064470Y-73092422D01*
X161120404Y-73134293D01*
X161144821Y-73199758D01*
X161129969Y-73268031D01*
X161108819Y-73296285D01*
X160994889Y-73410215D01*
X160869951Y-73582179D01*
X160773444Y-73771585D01*
X160707753Y-73973760D01*
X160703218Y-74002393D01*
X160674500Y-74183713D01*
X157356808Y-74183713D01*
X157297895Y-74002394D01*
X157297895Y-74002393D01*
X157263237Y-73934375D01*
X157197815Y-73805978D01*
X157172827Y-73771585D01*
X157068247Y-73627641D01*
X157068243Y-73627636D01*
X157017683Y-73577076D01*
X156984198Y-73515753D01*
X156989182Y-73446061D01*
X157031054Y-73390128D01*
X157062031Y-73373213D01*
X157142086Y-73343354D01*
X157142093Y-73343350D01*
X157257187Y-73257190D01*
X157257190Y-73257187D01*
X157343350Y-73142093D01*
X157343354Y-73142086D01*
X157393596Y-73007379D01*
X157393598Y-73007372D01*
X157399999Y-72947844D01*
X157400000Y-72947827D01*
X157400000Y-72250000D01*
X156375278Y-72250000D01*
X156419333Y-72173694D01*
X156450000Y-72059244D01*
X156450000Y-71940756D01*
X156419333Y-71826306D01*
X156375278Y-71750000D01*
X157400000Y-71750000D01*
X157400000Y-71052172D01*
X157399999Y-71052155D01*
X157393598Y-70992627D01*
X157393597Y-70992623D01*
X157356136Y-70892185D01*
X157356135Y-70892182D01*
X157343355Y-70857915D01*
X157343350Y-70857906D01*
X157257190Y-70742812D01*
X157257187Y-70742809D01*
X157142093Y-70656649D01*
X157142086Y-70656645D01*
X157007379Y-70606403D01*
X157007372Y-70606401D01*
X156947844Y-70600000D01*
X156250000Y-70600000D01*
X156250000Y-71624722D01*
X156173694Y-71580667D01*
X156059244Y-71550000D01*
X155940756Y-71550000D01*
X155826306Y-71580667D01*
X155750000Y-71624722D01*
X155750000Y-70600000D01*
X155052155Y-70600000D01*
X154992627Y-70606401D01*
X154992620Y-70606403D01*
X154857913Y-70656645D01*
X154857906Y-70656649D01*
X154742812Y-70742809D01*
X154742809Y-70742812D01*
X154656649Y-70857906D01*
X154656645Y-70857913D01*
X154606403Y-70992620D01*
X154606401Y-70992627D01*
X154600000Y-71052155D01*
X154600000Y-71750000D01*
X155624722Y-71750000D01*
X155580667Y-71826306D01*
X155550000Y-71940756D01*
X155550000Y-72059244D01*
X155580667Y-72173694D01*
X155624722Y-72250000D01*
X154600000Y-72250000D01*
X154600000Y-72947844D01*
X154606401Y-73007372D01*
X154606403Y-73007379D01*
X154656645Y-73142086D01*
X154656649Y-73142093D01*
X154742809Y-73257187D01*
X154742812Y-73257190D01*
X154857906Y-73343350D01*
X154857913Y-73343354D01*
X154937968Y-73373213D01*
X154993902Y-73415084D01*
X155018319Y-73480549D01*
X155003467Y-73548822D01*
X154982317Y-73577075D01*
X154931756Y-73627636D01*
X154931752Y-73627641D01*
X154802187Y-73805974D01*
X154702104Y-74002393D01*
X154702103Y-74002396D01*
X154633985Y-74212047D01*
X154599500Y-74429778D01*
X151500500Y-74429778D01*
X151500500Y-66250013D01*
X152630000Y-66250013D01*
X152630000Y-66900000D01*
X153739252Y-66900000D01*
X153717482Y-66937708D01*
X153680000Y-67077591D01*
X153680000Y-67222409D01*
X153717482Y-67362292D01*
X153739252Y-67400000D01*
X152630001Y-67400000D01*
X152630001Y-68049986D01*
X152640494Y-68152696D01*
X152640494Y-68152698D01*
X152695640Y-68319119D01*
X152695645Y-68319130D01*
X152787680Y-68468340D01*
X152787683Y-68468344D01*
X152911655Y-68592316D01*
X152911659Y-68592319D01*
X153060869Y-68684354D01*
X153060880Y-68684359D01*
X153227302Y-68739505D01*
X153330019Y-68749999D01*
X153979999Y-68749999D01*
X153980000Y-68749998D01*
X153980000Y-67640747D01*
X154017708Y-67662518D01*
X154157591Y-67700000D01*
X154302409Y-67700000D01*
X154442292Y-67662518D01*
X154480000Y-67640747D01*
X154480000Y-68749999D01*
X155129972Y-68749999D01*
X155129986Y-68749998D01*
X155232696Y-68739505D01*
X155232698Y-68739505D01*
X155399119Y-68684359D01*
X155399130Y-68684354D01*
X155548340Y-68592319D01*
X155548344Y-68592316D01*
X155672316Y-68468344D01*
X155672319Y-68468340D01*
X155764354Y-68319130D01*
X155764359Y-68319119D01*
X155819505Y-68152697D01*
X155829999Y-68049986D01*
X155830000Y-68049973D01*
X155830000Y-67400000D01*
X154720748Y-67400000D01*
X154742518Y-67362292D01*
X154780000Y-67222409D01*
X154780000Y-67077591D01*
X154765650Y-67024038D01*
X160249500Y-67024038D01*
X160249500Y-67275962D01*
X160269146Y-67400000D01*
X160288910Y-67524785D01*
X160366760Y-67764383D01*
X160481132Y-67988848D01*
X160629201Y-68192649D01*
X160629205Y-68192654D01*
X160807345Y-68370794D01*
X160807350Y-68370798D01*
X160916363Y-68450000D01*
X161011155Y-68518870D01*
X161154184Y-68591747D01*
X161235616Y-68633239D01*
X161235618Y-68633239D01*
X161235621Y-68633241D01*
X161475215Y-68711090D01*
X161724038Y-68750500D01*
X161724039Y-68750500D01*
X161975961Y-68750500D01*
X161975962Y-68750500D01*
X162224785Y-68711090D01*
X162464379Y-68633241D01*
X162688845Y-68518870D01*
X162892656Y-68370793D01*
X163070793Y-68192656D01*
X163218870Y-67988845D01*
X163333241Y-67764379D01*
X163411090Y-67524785D01*
X163450500Y-67275962D01*
X163450500Y-67024038D01*
X163411090Y-66775215D01*
X163333241Y-66535621D01*
X163333239Y-66535618D01*
X163333239Y-66535616D01*
X163291747Y-66454184D01*
X163218870Y-66311155D01*
X163099825Y-66147303D01*
X163070798Y-66107350D01*
X163070794Y-66107345D01*
X162892654Y-65929205D01*
X162892649Y-65929201D01*
X162688848Y-65781132D01*
X162688847Y-65781131D01*
X162688845Y-65781130D01*
X162618747Y-65745413D01*
X162464383Y-65666760D01*
X162224785Y-65588910D01*
X162160821Y-65578779D01*
X162141600Y-65575734D01*
X161975962Y-65549500D01*
X161724038Y-65549500D01*
X161599626Y-65569205D01*
X161475214Y-65588910D01*
X161235616Y-65666760D01*
X161011151Y-65781132D01*
X160807350Y-65929201D01*
X160807345Y-65929205D01*
X160629205Y-66107345D01*
X160629201Y-66107350D01*
X160481132Y-66311151D01*
X160366760Y-66535616D01*
X160288910Y-66775214D01*
X160269146Y-66900000D01*
X160249500Y-67024038D01*
X154765650Y-67024038D01*
X154742518Y-66937708D01*
X154720748Y-66900000D01*
X155829999Y-66900000D01*
X155829999Y-66250028D01*
X155829998Y-66250013D01*
X155819505Y-66147303D01*
X155819505Y-66147301D01*
X155764359Y-65980880D01*
X155764354Y-65980869D01*
X155672319Y-65831659D01*
X155672316Y-65831655D01*
X155548344Y-65707683D01*
X155548340Y-65707680D01*
X155399130Y-65615645D01*
X155399119Y-65615640D01*
X155232697Y-65560494D01*
X155129986Y-65550000D01*
X154480000Y-65550000D01*
X154480000Y-66659252D01*
X154442292Y-66637482D01*
X154302409Y-66600000D01*
X154157591Y-66600000D01*
X154017708Y-66637482D01*
X153980000Y-66659252D01*
X153980000Y-65550000D01*
X153330028Y-65550000D01*
X153330012Y-65550001D01*
X153227303Y-65560494D01*
X153227301Y-65560494D01*
X153060880Y-65615640D01*
X153060869Y-65615645D01*
X152911659Y-65707680D01*
X152911655Y-65707683D01*
X152787683Y-65831655D01*
X152787680Y-65831659D01*
X152695645Y-65980869D01*
X152695640Y-65980880D01*
X152640494Y-66147302D01*
X152630000Y-66250013D01*
X151500500Y-66250013D01*
X151500500Y-65459635D01*
X164999500Y-65459635D01*
X164999500Y-67460370D01*
X164999501Y-67460376D01*
X165005908Y-67519983D01*
X165056202Y-67654828D01*
X165056206Y-67654835D01*
X165142452Y-67770044D01*
X165142455Y-67770047D01*
X165257664Y-67856293D01*
X165257667Y-67856295D01*
X165257668Y-67856295D01*
X165257669Y-67856296D01*
X165286025Y-67866872D01*
X165341958Y-67908742D01*
X165366376Y-67974206D01*
X165351525Y-68042479D01*
X165343010Y-68055939D01*
X165210213Y-68238719D01*
X165106417Y-68442429D01*
X165035765Y-68659871D01*
X165021491Y-68750000D01*
X166009252Y-68750000D01*
X165987482Y-68787708D01*
X165950000Y-68927591D01*
X165950000Y-69072409D01*
X165987482Y-69212292D01*
X166009252Y-69250000D01*
X165021491Y-69250000D01*
X165035765Y-69340128D01*
X165106417Y-69557570D01*
X165210211Y-69761276D01*
X165344597Y-69946242D01*
X165506257Y-70107902D01*
X165506263Y-70107907D01*
X165590863Y-70169372D01*
X165633529Y-70224701D01*
X165639508Y-70294315D01*
X165606903Y-70356110D01*
X165590864Y-70370007D01*
X165505940Y-70431709D01*
X165505931Y-70431716D01*
X165344216Y-70593431D01*
X165344216Y-70593432D01*
X165344214Y-70593434D01*
X165298286Y-70656649D01*
X165209783Y-70778461D01*
X165105950Y-70982244D01*
X165035278Y-71199750D01*
X165035278Y-71199753D01*
X165035278Y-71199755D01*
X164999500Y-71425646D01*
X164999500Y-71654354D01*
X165014649Y-71750000D01*
X165035278Y-71880246D01*
X165035278Y-71880249D01*
X165105950Y-72097755D01*
X165105952Y-72097758D01*
X165209783Y-72301538D01*
X165344214Y-72486566D01*
X165505934Y-72648286D01*
X165690962Y-72782717D01*
X165894742Y-72886548D01*
X165894744Y-72886549D01*
X166112251Y-72957221D01*
X166112252Y-72957221D01*
X166112255Y-72957222D01*
X166338146Y-72993000D01*
X166338147Y-72993000D01*
X166661853Y-72993000D01*
X166661854Y-72993000D01*
X166887745Y-72957222D01*
X166887748Y-72957221D01*
X166887749Y-72957221D01*
X167105255Y-72886549D01*
X167105255Y-72886548D01*
X167105258Y-72886548D01*
X167309038Y-72782717D01*
X167494066Y-72648286D01*
X167655786Y-72486566D01*
X167790217Y-72301538D01*
X167894048Y-72097758D01*
X167907289Y-72057007D01*
X167964721Y-71880249D01*
X167964721Y-71880248D01*
X167964722Y-71880245D01*
X168000500Y-71654354D01*
X168000500Y-71425646D01*
X167964722Y-71199755D01*
X167964721Y-71199751D01*
X167964721Y-71199750D01*
X167894049Y-70982244D01*
X167894048Y-70982242D01*
X167790217Y-70778462D01*
X167655786Y-70593434D01*
X167494066Y-70431714D01*
X167409134Y-70370007D01*
X167366470Y-70314678D01*
X167360491Y-70245064D01*
X167393097Y-70183269D01*
X167409137Y-70169371D01*
X167493739Y-70107905D01*
X167655402Y-69946242D01*
X167789788Y-69761276D01*
X167893582Y-69557570D01*
X167964234Y-69340128D01*
X167978509Y-69250000D01*
X166990748Y-69250000D01*
X167012518Y-69212292D01*
X167050000Y-69072409D01*
X167050000Y-68927591D01*
X167012518Y-68787708D01*
X166990748Y-68750000D01*
X167978509Y-68750000D01*
X167964234Y-68659871D01*
X167893582Y-68442429D01*
X167789788Y-68238723D01*
X167656988Y-68055940D01*
X167633508Y-67990133D01*
X167649333Y-67922079D01*
X167699439Y-67873384D01*
X167713966Y-67866875D01*
X167742331Y-67856296D01*
X167857546Y-67770046D01*
X167943796Y-67654831D01*
X167994091Y-67519983D01*
X168000500Y-67460373D01*
X168000499Y-65459628D01*
X167994091Y-65400017D01*
X167943796Y-65265169D01*
X167943795Y-65265168D01*
X167943793Y-65265164D01*
X167857547Y-65149955D01*
X167857544Y-65149952D01*
X167742335Y-65063706D01*
X167742328Y-65063702D01*
X167607482Y-65013408D01*
X167607483Y-65013408D01*
X167547883Y-65007001D01*
X167547881Y-65007000D01*
X167547873Y-65007000D01*
X167547864Y-65007000D01*
X165452129Y-65007000D01*
X165452123Y-65007001D01*
X165392516Y-65013408D01*
X165257671Y-65063702D01*
X165257664Y-65063706D01*
X165142455Y-65149952D01*
X165142452Y-65149955D01*
X165056206Y-65265164D01*
X165056202Y-65265171D01*
X165005908Y-65400017D01*
X164999501Y-65459616D01*
X164999501Y-65459623D01*
X164999500Y-65459635D01*
X151500500Y-65459635D01*
X151500500Y-62774071D01*
X152590000Y-62774071D01*
X152590000Y-63025928D01*
X152629397Y-63274669D01*
X152707219Y-63514184D01*
X152821557Y-63738583D01*
X152895748Y-63840697D01*
X152895748Y-63840698D01*
X153666212Y-63070234D01*
X153677482Y-63112292D01*
X153749890Y-63237708D01*
X153852292Y-63340110D01*
X153977708Y-63412518D01*
X154019765Y-63423787D01*
X153249300Y-64194250D01*
X153351416Y-64268442D01*
X153575815Y-64382780D01*
X153815330Y-64460602D01*
X154064072Y-64500000D01*
X154315928Y-64500000D01*
X154564669Y-64460602D01*
X154804184Y-64382780D01*
X155028575Y-64268446D01*
X155028581Y-64268442D01*
X155130697Y-64194250D01*
X155130698Y-64194250D01*
X154360234Y-63423787D01*
X154402292Y-63412518D01*
X154527708Y-63340110D01*
X154630110Y-63237708D01*
X154702518Y-63112292D01*
X154713787Y-63070234D01*
X155484250Y-63840698D01*
X155484250Y-63840697D01*
X155558442Y-63738581D01*
X155558446Y-63738575D01*
X155672780Y-63514184D01*
X155750602Y-63274669D01*
X155790000Y-63025928D01*
X155790000Y-62774071D01*
X155750602Y-62525330D01*
X155672780Y-62285815D01*
X155558442Y-62061416D01*
X155513807Y-61999982D01*
X160209500Y-61999982D01*
X160209500Y-63800017D01*
X160220000Y-63902796D01*
X160220001Y-63902798D01*
X160275186Y-64069335D01*
X160367288Y-64218656D01*
X160491344Y-64342712D01*
X160640665Y-64434814D01*
X160807202Y-64489999D01*
X160909990Y-64500500D01*
X160909995Y-64500500D01*
X162710005Y-64500500D01*
X162710010Y-64500500D01*
X162812798Y-64489999D01*
X162979335Y-64434814D01*
X163128656Y-64342712D01*
X163252712Y-64218656D01*
X163344814Y-64069335D01*
X163399999Y-63902798D01*
X163410500Y-63800010D01*
X163410500Y-61999990D01*
X163399999Y-61897202D01*
X163344814Y-61730665D01*
X163252712Y-61581344D01*
X163128656Y-61457288D01*
X162979335Y-61365186D01*
X162812798Y-61310001D01*
X162812796Y-61310000D01*
X162710017Y-61299500D01*
X162710010Y-61299500D01*
X160909990Y-61299500D01*
X160909982Y-61299500D01*
X160807203Y-61310000D01*
X160807202Y-61310001D01*
X160724669Y-61337349D01*
X160640667Y-61365185D01*
X160640662Y-61365187D01*
X160491342Y-61457289D01*
X160367289Y-61581342D01*
X160275187Y-61730662D01*
X160275186Y-61730665D01*
X160220001Y-61897202D01*
X160220001Y-61897203D01*
X160220000Y-61897203D01*
X160209500Y-61999982D01*
X155513807Y-61999982D01*
X155484250Y-61959301D01*
X155484250Y-61959300D01*
X154713787Y-62729764D01*
X154702518Y-62687708D01*
X154630110Y-62562292D01*
X154527708Y-62459890D01*
X154402292Y-62387482D01*
X154360232Y-62376212D01*
X155130698Y-61605748D01*
X155028583Y-61531557D01*
X154804184Y-61417219D01*
X154564669Y-61339397D01*
X154315928Y-61300000D01*
X154064072Y-61300000D01*
X153815330Y-61339397D01*
X153575815Y-61417219D01*
X153351413Y-61531559D01*
X153249301Y-61605747D01*
X153249300Y-61605748D01*
X154019765Y-62376212D01*
X153977708Y-62387482D01*
X153852292Y-62459890D01*
X153749890Y-62562292D01*
X153677482Y-62687708D01*
X153666212Y-62729764D01*
X152895748Y-61959300D01*
X152895747Y-61959301D01*
X152821559Y-62061413D01*
X152707219Y-62285815D01*
X152629397Y-62525330D01*
X152590000Y-62774071D01*
X151500500Y-62774071D01*
X151500500Y-58524038D01*
X152589500Y-58524038D01*
X152589500Y-58775962D01*
X152628910Y-59024785D01*
X152706760Y-59264383D01*
X152821132Y-59488848D01*
X152969201Y-59692649D01*
X152969205Y-59692654D01*
X153147345Y-59870794D01*
X153147350Y-59870798D01*
X153325117Y-59999952D01*
X153351155Y-60018870D01*
X153494184Y-60091747D01*
X153575616Y-60133239D01*
X153575618Y-60133239D01*
X153575621Y-60133241D01*
X153815215Y-60211090D01*
X154064038Y-60250500D01*
X154064039Y-60250500D01*
X154315961Y-60250500D01*
X154315962Y-60250500D01*
X154564785Y-60211090D01*
X154804379Y-60133241D01*
X155028845Y-60018870D01*
X155232656Y-59870793D01*
X155410793Y-59692656D01*
X155558870Y-59488845D01*
X155673241Y-59264379D01*
X155751090Y-59024785D01*
X155790500Y-58775962D01*
X155790500Y-58524038D01*
X155751090Y-58275215D01*
X155673241Y-58035621D01*
X155673239Y-58035618D01*
X155673239Y-58035616D01*
X155558869Y-57811154D01*
X155558865Y-57811148D01*
X155514426Y-57749982D01*
X160209500Y-57749982D01*
X160209500Y-59550017D01*
X160220000Y-59652796D01*
X160275185Y-59819332D01*
X160275186Y-59819335D01*
X160367288Y-59968656D01*
X160491344Y-60092712D01*
X160640665Y-60184814D01*
X160807202Y-60239999D01*
X160909990Y-60250500D01*
X160909995Y-60250500D01*
X162710005Y-60250500D01*
X162710010Y-60250500D01*
X162812798Y-60239999D01*
X162979335Y-60184814D01*
X163128656Y-60092712D01*
X163252712Y-59968656D01*
X163344814Y-59819335D01*
X163399999Y-59652798D01*
X163410500Y-59550010D01*
X163410500Y-57749990D01*
X163399999Y-57647202D01*
X163344814Y-57480665D01*
X163293609Y-57397648D01*
X165199500Y-57397648D01*
X165199500Y-57602351D01*
X165231522Y-57804534D01*
X165294781Y-57999223D01*
X165387715Y-58181613D01*
X165508028Y-58347213D01*
X165652786Y-58491971D01*
X165807749Y-58604556D01*
X165818390Y-58612287D01*
X165934607Y-58671503D01*
X166000776Y-58705218D01*
X166000778Y-58705218D01*
X166000781Y-58705220D01*
X166105137Y-58739127D01*
X166195465Y-58768477D01*
X166296557Y-58784488D01*
X166397648Y-58800500D01*
X166397649Y-58800500D01*
X166602351Y-58800500D01*
X166602352Y-58800500D01*
X166804534Y-58768477D01*
X166999219Y-58705220D01*
X167181610Y-58612287D01*
X167274590Y-58544732D01*
X167347213Y-58491971D01*
X167347215Y-58491968D01*
X167347219Y-58491966D01*
X167491966Y-58347219D01*
X167491968Y-58347215D01*
X167491971Y-58347213D01*
X167544732Y-58274590D01*
X167612287Y-58181610D01*
X167705220Y-57999219D01*
X167768477Y-57804534D01*
X167800500Y-57602352D01*
X167800500Y-57397648D01*
X170199500Y-57397648D01*
X170199500Y-57602351D01*
X170231522Y-57804534D01*
X170294781Y-57999223D01*
X170387715Y-58181613D01*
X170508028Y-58347213D01*
X170652786Y-58491971D01*
X170807749Y-58604556D01*
X170818390Y-58612287D01*
X170934607Y-58671503D01*
X171000776Y-58705218D01*
X171000778Y-58705218D01*
X171000781Y-58705220D01*
X171105137Y-58739127D01*
X171195465Y-58768477D01*
X171296557Y-58784488D01*
X171397648Y-58800500D01*
X171397649Y-58800500D01*
X171602351Y-58800500D01*
X171602352Y-58800500D01*
X171804534Y-58768477D01*
X171999219Y-58705220D01*
X172181610Y-58612287D01*
X172274590Y-58544732D01*
X172347213Y-58491971D01*
X172347215Y-58491968D01*
X172347219Y-58491966D01*
X172491966Y-58347219D01*
X172491968Y-58347215D01*
X172491971Y-58347213D01*
X172544732Y-58274590D01*
X172612287Y-58181610D01*
X172705220Y-57999219D01*
X172768477Y-57804534D01*
X172800500Y-57602352D01*
X172800500Y-57397648D01*
X172770350Y-57207289D01*
X172768477Y-57195465D01*
X172705218Y-57000776D01*
X172671503Y-56934607D01*
X172612287Y-56818390D01*
X172604556Y-56807749D01*
X172491971Y-56652786D01*
X172347213Y-56508028D01*
X172181613Y-56387715D01*
X172181612Y-56387714D01*
X172181610Y-56387713D01*
X172124653Y-56358691D01*
X171999223Y-56294781D01*
X171804534Y-56231522D01*
X171629995Y-56203878D01*
X171602352Y-56199500D01*
X171397648Y-56199500D01*
X171373329Y-56203351D01*
X171195465Y-56231522D01*
X171000776Y-56294781D01*
X170818386Y-56387715D01*
X170652786Y-56508028D01*
X170508028Y-56652786D01*
X170387715Y-56818386D01*
X170294781Y-57000776D01*
X170231522Y-57195465D01*
X170199500Y-57397648D01*
X167800500Y-57397648D01*
X167770350Y-57207289D01*
X167768477Y-57195465D01*
X167705218Y-57000776D01*
X167671503Y-56934607D01*
X167612287Y-56818390D01*
X167604556Y-56807749D01*
X167491971Y-56652786D01*
X167347213Y-56508028D01*
X167181613Y-56387715D01*
X167181612Y-56387714D01*
X167181610Y-56387713D01*
X167124653Y-56358691D01*
X166999223Y-56294781D01*
X166804534Y-56231522D01*
X166629995Y-56203878D01*
X166602352Y-56199500D01*
X166397648Y-56199500D01*
X166373329Y-56203351D01*
X166195465Y-56231522D01*
X166000776Y-56294781D01*
X165818386Y-56387715D01*
X165652786Y-56508028D01*
X165508028Y-56652786D01*
X165387715Y-56818386D01*
X165294781Y-57000776D01*
X165231522Y-57195465D01*
X165199500Y-57397648D01*
X163293609Y-57397648D01*
X163252712Y-57331344D01*
X163128656Y-57207288D01*
X162979335Y-57115186D01*
X162812798Y-57060001D01*
X162812796Y-57060000D01*
X162710017Y-57049500D01*
X162710010Y-57049500D01*
X160909990Y-57049500D01*
X160909982Y-57049500D01*
X160807203Y-57060000D01*
X160807202Y-57060001D01*
X160724669Y-57087349D01*
X160640667Y-57115185D01*
X160640662Y-57115187D01*
X160491342Y-57207289D01*
X160367289Y-57331342D01*
X160275187Y-57480662D01*
X160275186Y-57480665D01*
X160220001Y-57647202D01*
X160220001Y-57647203D01*
X160220000Y-57647203D01*
X160209500Y-57749982D01*
X155514426Y-57749982D01*
X155410798Y-57607350D01*
X155410794Y-57607345D01*
X155232654Y-57429205D01*
X155232649Y-57429201D01*
X155028848Y-57281132D01*
X155028847Y-57281131D01*
X155028845Y-57281130D01*
X154958747Y-57245413D01*
X154804383Y-57166760D01*
X154564785Y-57088910D01*
X154315962Y-57049500D01*
X154064038Y-57049500D01*
X153997738Y-57060001D01*
X153815214Y-57088910D01*
X153575616Y-57166760D01*
X153351151Y-57281132D01*
X153147350Y-57429201D01*
X153147345Y-57429205D01*
X152969205Y-57607345D01*
X152969201Y-57607350D01*
X152821132Y-57811151D01*
X152706760Y-58035616D01*
X152628910Y-58275214D01*
X152594580Y-58491966D01*
X152589500Y-58524038D01*
X151500500Y-58524038D01*
X151500500Y-54099982D01*
X152629500Y-54099982D01*
X152629500Y-55900017D01*
X152640000Y-56002796D01*
X152695185Y-56169332D01*
X152695186Y-56169335D01*
X152787288Y-56318656D01*
X152911344Y-56442712D01*
X153060665Y-56534814D01*
X153227202Y-56589999D01*
X153329990Y-56600500D01*
X153329995Y-56600500D01*
X155130005Y-56600500D01*
X155130010Y-56600500D01*
X155232798Y-56589999D01*
X155399335Y-56534814D01*
X155548656Y-56442712D01*
X155672712Y-56318656D01*
X155764814Y-56169335D01*
X155819999Y-56002798D01*
X155830500Y-55900010D01*
X155830500Y-54874038D01*
X160249500Y-54874038D01*
X160249500Y-55125961D01*
X160288910Y-55374785D01*
X160366760Y-55614383D01*
X160481132Y-55838848D01*
X160629201Y-56042649D01*
X160629205Y-56042654D01*
X160807345Y-56220794D01*
X160807350Y-56220798D01*
X160985117Y-56349952D01*
X161011155Y-56368870D01*
X161154184Y-56441747D01*
X161235616Y-56483239D01*
X161235618Y-56483239D01*
X161235621Y-56483241D01*
X161475215Y-56561090D01*
X161724038Y-56600500D01*
X161724039Y-56600500D01*
X161975961Y-56600500D01*
X161975962Y-56600500D01*
X162224785Y-56561090D01*
X162464379Y-56483241D01*
X162688845Y-56368870D01*
X162892656Y-56220793D01*
X163070793Y-56042656D01*
X163218870Y-55838845D01*
X163333241Y-55614379D01*
X163411090Y-55374785D01*
X163450500Y-55125962D01*
X163450500Y-54874038D01*
X163411090Y-54625215D01*
X163333241Y-54385621D01*
X163333239Y-54385618D01*
X163333239Y-54385616D01*
X163291747Y-54304184D01*
X163218870Y-54161155D01*
X163174425Y-54099982D01*
X163070798Y-53957350D01*
X163070794Y-53957345D01*
X162892654Y-53779205D01*
X162892649Y-53779201D01*
X162688848Y-53631132D01*
X162688847Y-53631131D01*
X162688845Y-53631130D01*
X162618747Y-53595413D01*
X162464383Y-53516760D01*
X162224785Y-53438910D01*
X161975962Y-53399500D01*
X161724038Y-53399500D01*
X161657738Y-53410001D01*
X161475214Y-53438910D01*
X161235616Y-53516760D01*
X161011151Y-53631132D01*
X160807350Y-53779201D01*
X160807345Y-53779205D01*
X160629205Y-53957345D01*
X160629201Y-53957350D01*
X160481132Y-54161151D01*
X160366760Y-54385616D01*
X160288910Y-54625214D01*
X160249500Y-54874038D01*
X155830500Y-54874038D01*
X155830500Y-54099990D01*
X155819999Y-53997202D01*
X155764814Y-53830665D01*
X155672712Y-53681344D01*
X155548656Y-53557288D01*
X155399335Y-53465186D01*
X155232798Y-53410001D01*
X155232796Y-53410000D01*
X155130017Y-53399500D01*
X155130010Y-53399500D01*
X153329990Y-53399500D01*
X153329982Y-53399500D01*
X153227203Y-53410000D01*
X153227202Y-53410001D01*
X153144669Y-53437349D01*
X153060667Y-53465185D01*
X153060662Y-53465187D01*
X152911342Y-53557289D01*
X152787289Y-53681342D01*
X152695187Y-53830662D01*
X152695186Y-53830665D01*
X152640001Y-53997202D01*
X152640001Y-53997203D01*
X152640000Y-53997203D01*
X152629500Y-54099982D01*
X151500500Y-54099982D01*
X151500500Y-51124500D01*
X151520185Y-51057461D01*
X151572989Y-51011706D01*
X151624500Y-51000500D01*
X174375500Y-51000500D01*
X174442539Y-51020185D01*
G37*
%TD.AperFunction*%
%TD*%
D24*
%TO.C,J2*%
X162025000Y-71750000D03*
D25*
X162025000Y-74290000D03*
%TD*%
D26*
%TO.C,D3*%
X161810000Y-62900000D03*
D27*
X154190000Y-62900000D03*
%TD*%
D28*
%TO.C,D1*%
X154230000Y-55000000D03*
D27*
X161850000Y-55000000D03*
%TD*%
D28*
%TO.C,D4*%
X154230000Y-67150000D03*
D27*
X161850000Y-67150000D03*
%TD*%
D29*
%TO.C,U1*%
X166500000Y-66460000D03*
D30*
X166500000Y-69000000D03*
X166500000Y-71540000D03*
%TD*%
D31*
%TO.C,C1*%
X166500000Y-57500000D03*
X171500000Y-57500000D03*
%TD*%
D26*
%TO.C,D2*%
X161810000Y-58650000D03*
D27*
X154190000Y-58650000D03*
%TD*%
D32*
%TO.C,D5*%
X156000000Y-72000000D03*
D33*
X156000000Y-74540000D03*
%TD*%
%TO.C,J2*%
D34*
X160225000Y-69950000D02*
X163775000Y-69950000D01*
X160225000Y-76050000D02*
X160225000Y-69950000D01*
X163775000Y-69950000D02*
X163775000Y-76050000D01*
X163775000Y-76050000D02*
X160225000Y-76050000D01*
%TO.C,D3*%
X152840000Y-61300000D02*
X163160000Y-61300000D01*
X163160000Y-64500000D01*
X152840000Y-64500000D01*
X152840000Y-61300000D01*
%TO.C,D1*%
X152880000Y-53400000D02*
X163200000Y-53400000D01*
X163200000Y-56600000D01*
X152880000Y-56600000D01*
X152880000Y-53400000D01*
%TO.C,D4*%
X152880000Y-65550000D02*
X163200000Y-65550000D01*
X163200000Y-68750000D01*
X152880000Y-68750000D01*
X152880000Y-65550000D01*
%TO.C,U1*%
X165000000Y-63750000D02*
X169900000Y-63750000D01*
X169900000Y-74250000D01*
X165000000Y-74250000D01*
X165000000Y-63750000D01*
%TO.C,C1*%
X174250000Y-57500000D02*
G75*
G02*
X163750000Y-57500000I-5250000J0D01*
G01*
X163750000Y-57500000D02*
G75*
G02*
X174250000Y-57500000I5250000J0D01*
G01*
%TO.C,D2*%
X152840000Y-57050000D02*
X163160000Y-57050000D01*
X163160000Y-60250000D01*
X152840000Y-60250000D01*
X152840000Y-57050000D01*
%TO.C,D5*%
X152790000Y-70060000D02*
X152790000Y-76490000D01*
X152790000Y-76490000D02*
X159210000Y-76490000D01*
X159210000Y-70060000D02*
X152790000Y-70060000D01*
X159210000Y-76490000D02*
X159210000Y-70060000D01*
%TD*%
D35*
X151000000Y-50500000D02*
X175000000Y-50500000D01*
X175000000Y-78000000D01*
X151000000Y-78000000D01*
X151000000Y-50500000D01*
M02*
